<?xml version="1.0" standalone="yes"?>
<svg xmlns="http://www.w3.org/2000/svg" width="2000" height="2000">
<path style="fill:#010101; stroke:none;" d="M0 0L0 2000L2000 2000L2000 0L0 0z"/>
<path style="fill:#35495f; stroke:none;" d="M250 250C256.793 273.579 272.771 297.035 283.753 319L353.753 459L533.247 818C563.338 878.182 598.146 937.902 624 1000C631.968 990.384 636.659 976.176 642.247 965L677.247 895L790.247 669L833.247 583C837.736 574.023 849.219 559.084 849.219 549C849.219 544.345 845.272 539.05 843.247 535L827.247 503L771.247 391L719.247 287L706.247 261C704.662 257.83 703.047 252.22 699.61 250.603C690.814 246.466 672.728 250 663 250L572 250L250 250M1375 1000L1376 1000C1401.85 937.902 1436.66 878.182 1466.75 818L1646.25 459L1716.25 319C1727.23 297.036 1743.21 273.579 1750 250L1428 250L1337 250C1327.27 250 1309.19 246.466 1300.39 250.603C1296.95 252.22 1295.34 257.83 1293.75 261L1280.75 287L1230.75 387L1172.75 503L1156.75 535C1154.73 539.05 1150.78 544.345 1150.78 549C1150.78 559.617 1163.02 575.536 1167.75 585L1212.75 675L1320.25 890C1338.44 926.377 1359.37 962.463 1375 1000z"/>
<path style="fill:#3b676b; stroke:none;" d="M849 550L850 551L849 550z"/>
<path style="fill:#45917b; stroke:none;" d="M850 550L849 552L850 550M1149 550L1151 552L1149 550z"/>
<path style="fill:#3b676b; stroke:none;" d="M1150 550L1151 551L1150 550z"/>
<path style="fill:#4fc18d; stroke:none;" d="M850 551L804.753 641L717.753 815L465.753 1317L319.753 1609L272.753 1703L250 1750L572 1750L663 1750C672.728 1750 690.814 1753.53 699.61 1749.4C703.047 1747.78 704.662 1742.17 706.247 1739L720.247 1711L775.247 1601C825.385 1500.72 875.109 1400.28 925.247 1300L974.247 1202C982.392 1185.71 993.959 1168.5 999 1151L1001 1151C1006.04 1168.5 1017.61 1185.71 1025.75 1202L1074.75 1300C1124.89 1400.28 1174.62 1500.73 1224.75 1601L1279.75 1711L1293.75 1739C1295.34 1742.17 1296.95 1747.78 1300.39 1749.4C1309.19 1753.53 1327.27 1750 1337 1750L1428 1750L1750 1750L1727.25 1703L1680.25 1609L1534.25 1317L1282.25 815L1195.25 641L1150 551C1141.6 561.141 1136.65 576.212 1130.75 588L1093.75 662L1031.75 786C1021.72 806.073 1007.21 827.448 1001 849L999 849C992.791 827.447 978.284 806.073 968.247 786L906.247 662L869.247 588C863.353 576.212 858.403 561.141 850 551z"/>
<path style="fill:#3b676b; stroke:none;" d="M848 552L849 553L848 552z"/>
<path style="fill:#45917b; stroke:none;" d="M851 552L852 553L851 552M1148 552L1149 553L1148 552z"/>
<path style="fill:#3b676b; stroke:none;" d="M1151 552L1152 553L1151 552z"/>
<path style="fill:#45917b; stroke:none;" d="M848 553L849 554L848 553M1151 553L1152 554L1151 553z"/>
<path style="fill:#3b676b; stroke:none;" d="M847 554L848 555L847 554z"/>
<path style="fill:#45917b; stroke:none;" d="M852 554L853 555L852 554M1147 554L1148 555L1147 554z"/>
<path style="fill:#3b676b; stroke:none;" d="M1152 554L1153 555L1152 554z"/>
<path style="fill:#45917b; stroke:none;" d="M847 555L848 556L847 555M1152 555L1153 556L1152 555z"/>
<path style="fill:#3b676b; stroke:none;" d="M846 556L847 557L846 556z"/>
<path style="fill:#45917b; stroke:none;" d="M853 556L854 557L853 556M1146 556L1147 557L1146 556z"/>
<path style="fill:#3b676b; stroke:none;" d="M1153 556L1154 557L1153 556z"/>
<path style="fill:#45917b; stroke:none;" d="M846 557L847 558L846 557M1153 557L1154 558L1153 557z"/>
<path style="fill:#3b676b; stroke:none;" d="M845 558L846 559L845 558z"/>
<path style="fill:#45917b; stroke:none;" d="M854 558L855 559L854 558M1145 558L1146 559L1145 558z"/>
<path style="fill:#3b676b; stroke:none;" d="M1154 558L1155 559L1154 558z"/>
<path style="fill:#45917b; stroke:none;" d="M845 559L846 560L845 559M1154 559L1155 560L1154 559z"/>
<path style="fill:#3b676b; stroke:none;" d="M844 560L845 561L844 560z"/>
<path style="fill:#45917b; stroke:none;" d="M855 560L856 561L855 560M1144 560L1145 561L1144 560z"/>
<path style="fill:#3b676b; stroke:none;" d="M1155 560L1156 561L1155 560z"/>
<path style="fill:#45917b; stroke:none;" d="M844 561L845 562L844 561M1155 561L1156 562L1155 561z"/>
<path style="fill:#3b676b; stroke:none;" d="M843 562L844 563L843 562z"/>
<path style="fill:#45917b; stroke:none;" d="M856 562L857 563L856 562M1143 562L1144 563L1143 562z"/>
<path style="fill:#3b676b; stroke:none;" d="M1156 562L1157 563L1156 562z"/>
<path style="fill:#45917b; stroke:none;" d="M843 563L844 564L843 563M1156 563L1157 564L1156 563z"/>
<path style="fill:#3b676b; stroke:none;" d="M842 564L843 565L842 564z"/>
<path style="fill:#45917b; stroke:none;" d="M857 564L858 565L857 564M1142 564L1143 565L1142 564z"/>
<path style="fill:#3b676b; stroke:none;" d="M1157 564L1158 565L1157 564z"/>
<path style="fill:#45917b; stroke:none;" d="M842 565L843 566L842 565M1157 565L1158 566L1157 565z"/>
<path style="fill:#3b676b; stroke:none;" d="M841 566L842 567L841 566z"/>
<path style="fill:#45917b; stroke:none;" d="M858 566L859 567L858 566M1141 566L1142 567L1141 566z"/>
<path style="fill:#3b676b; stroke:none;" d="M1158 566L1159 567L1158 566z"/>
<path style="fill:#45917b; stroke:none;" d="M841 567L842 568L841 567M1158 567L1159 568L1158 567z"/>
<path style="fill:#3b676b; stroke:none;" d="M840 568L841 569L840 568z"/>
<path style="fill:#45917b; stroke:none;" d="M859 568L860 569L859 568M1140 568L1141 569L1140 568z"/>
<path style="fill:#3b676b; stroke:none;" d="M1159 568L1160 569L1159 568z"/>
<path style="fill:#45917b; stroke:none;" d="M840 569L841 570L840 569M1159 569L1160 570L1159 569z"/>
<path style="fill:#3b676b; stroke:none;" d="M839 570L840 571L839 570z"/>
<path style="fill:#45917b; stroke:none;" d="M860 570L861 571L860 570M1139 570L1140 571L1139 570z"/>
<path style="fill:#3b676b; stroke:none;" d="M1160 570L1161 571L1160 570z"/>
<path style="fill:#45917b; stroke:none;" d="M839 571L840 572L839 571M1160 571L1161 572L1160 571z"/>
<path style="fill:#3b676b; stroke:none;" d="M838 572L839 573L838 572z"/>
<path style="fill:#45917b; stroke:none;" d="M861 572L862 573L861 572M1138 572L1139 573L1138 572z"/>
<path style="fill:#3b676b; stroke:none;" d="M1161 572L1162 573L1161 572z"/>
<path style="fill:#45917b; stroke:none;" d="M838 573L839 574L838 573M1161 573L1162 574L1161 573z"/>
<path style="fill:#3b676b; stroke:none;" d="M837 574L838 575L837 574z"/>
<path style="fill:#45917b; stroke:none;" d="M862 574L863 575L862 574M1137 574L1138 575L1137 574z"/>
<path style="fill:#3b676b; stroke:none;" d="M1162 574L1163 575L1162 574z"/>
<path style="fill:#45917b; stroke:none;" d="M837 575L838 576L837 575M1162 575L1163 576L1162 575z"/>
<path style="fill:#3b676b; stroke:none;" d="M836 576L837 577L836 576z"/>
<path style="fill:#45917b; stroke:none;" d="M863 576L864 577L863 576M1136 576L1137 577L1136 576z"/>
<path style="fill:#3b676b; stroke:none;" d="M1163 576L1164 577L1163 576z"/>
<path style="fill:#45917b; stroke:none;" d="M836 577L837 578L836 577M1163 577L1164 578L1163 577z"/>
<path style="fill:#3b676b; stroke:none;" d="M835 578L836 579L835 578z"/>
<path style="fill:#45917b; stroke:none;" d="M864 578L865 579L864 578M1135 578L1136 579L1135 578z"/>
<path style="fill:#3b676b; stroke:none;" d="M1164 578L1165 579L1164 578z"/>
<path style="fill:#45917b; stroke:none;" d="M835 579L836 580L835 579M1164 579L1165 580L1164 579z"/>
<path style="fill:#3b676b; stroke:none;" d="M834 580L835 581L834 580z"/>
<path style="fill:#45917b; stroke:none;" d="M865 580L866 581L865 580M1134 580L1135 581L1134 580z"/>
<path style="fill:#3b676b; stroke:none;" d="M1165 580L1166 581L1165 580z"/>
<path style="fill:#45917b; stroke:none;" d="M834 581L835 582L834 581M1165 581L1166 582L1165 581z"/>
<path style="fill:#3b676b; stroke:none;" d="M833 582L834 583L833 582z"/>
<path style="fill:#45917b; stroke:none;" d="M866 582L867 583L866 582M1133 582L1134 583L1133 582z"/>
<path style="fill:#3b676b; stroke:none;" d="M1166 582L1167 583L1166 582z"/>
<path style="fill:#45917b; stroke:none;" d="M833 583L834 584L833 583M1166 583L1167 584L1166 583z"/>
<path style="fill:#3b676b; stroke:none;" d="M832 584L833 585L832 584z"/>
<path style="fill:#45917b; stroke:none;" d="M867 584L868 585L867 584M1132 584L1133 585L1132 584z"/>
<path style="fill:#3b676b; stroke:none;" d="M1167 584L1168 585L1167 584z"/>
<path style="fill:#45917b; stroke:none;" d="M832 585L833 586L832 585M1167 585L1168 586L1167 585z"/>
<path style="fill:#3b676b; stroke:none;" d="M831 586L832 587L831 586z"/>
<path style="fill:#45917b; stroke:none;" d="M868 586L869 587L868 586M1131 586L1132 587L1131 586z"/>
<path style="fill:#3b676b; stroke:none;" d="M1168 586L1169 587L1168 586z"/>
<path style="fill:#45917b; stroke:none;" d="M831 587L832 588L831 587M1168 587L1169 588L1168 587z"/>
<path style="fill:#3b676b; stroke:none;" d="M830 588L831 589L830 588z"/>
<path style="fill:#45917b; stroke:none;" d="M869 588L870 589L869 588M1130 588L1131 589L1130 588z"/>
<path style="fill:#3b676b; stroke:none;" d="M1169 588L1170 589L1169 588z"/>
<path style="fill:#45917b; stroke:none;" d="M830 589L831 590L830 589M1169 589L1170 590L1169 589z"/>
<path style="fill:#3b676b; stroke:none;" d="M829 590L830 591L829 590z"/>
<path style="fill:#45917b; stroke:none;" d="M870 590L871 591L870 590M1129 590L1130 591L1129 590z"/>
<path style="fill:#3b676b; stroke:none;" d="M1170 590L1171 591L1170 590z"/>
<path style="fill:#45917b; stroke:none;" d="M829 591L830 592L829 591M1170 591L1171 592L1170 591z"/>
<path style="fill:#3b676b; stroke:none;" d="M828 592L829 593L828 592z"/>
<path style="fill:#45917b; stroke:none;" d="M871 592L872 593L871 592M1128 592L1129 593L1128 592z"/>
<path style="fill:#3b676b; stroke:none;" d="M1171 592L1172 593L1171 592z"/>
<path style="fill:#45917b; stroke:none;" d="M828 593L829 594L828 593M1171 593L1172 594L1171 593z"/>
<path style="fill:#3b676b; stroke:none;" d="M827 594L828 595L827 594z"/>
<path style="fill:#45917b; stroke:none;" d="M872 594L873 595L872 594M1127 594L1128 595L1127 594z"/>
<path style="fill:#3b676b; stroke:none;" d="M1172 594L1173 595L1172 594z"/>
<path style="fill:#45917b; stroke:none;" d="M827 595L828 596L827 595M1172 595L1173 596L1172 595z"/>
<path style="fill:#3b676b; stroke:none;" d="M826 596L827 597L826 596z"/>
<path style="fill:#45917b; stroke:none;" d="M873 596L874 597L873 596M1126 596L1127 597L1126 596z"/>
<path style="fill:#3b676b; stroke:none;" d="M1173 596L1174 597L1173 596z"/>
<path style="fill:#45917b; stroke:none;" d="M826 597L827 598L826 597M1173 597L1174 598L1173 597z"/>
<path style="fill:#3b676b; stroke:none;" d="M825 598L826 599L825 598z"/>
<path style="fill:#45917b; stroke:none;" d="M874 598L875 599L874 598M1125 598L1126 599L1125 598z"/>
<path style="fill:#3b676b; stroke:none;" d="M1174 598L1175 599L1174 598z"/>
<path style="fill:#45917b; stroke:none;" d="M825 599L826 600L825 599M1174 599L1175 600L1174 599z"/>
<path style="fill:#3b676b; stroke:none;" d="M824 600L825 601L824 600z"/>
<path style="fill:#45917b; stroke:none;" d="M875 600L876 601L875 600M1124 600L1125 601L1124 600z"/>
<path style="fill:#3b676b; stroke:none;" d="M1175 600L1176 601L1175 600z"/>
<path style="fill:#45917b; stroke:none;" d="M824 601L825 602L824 601M1175 601L1176 602L1175 601z"/>
<path style="fill:#3b676b; stroke:none;" d="M823 602L824 603L823 602z"/>
<path style="fill:#45917b; stroke:none;" d="M876 602L877 603L876 602M1123 602L1124 603L1123 602z"/>
<path style="fill:#3b676b; stroke:none;" d="M1176 602L1177 603L1176 602z"/>
<path style="fill:#45917b; stroke:none;" d="M823 603L824 604L823 603M1176 603L1177 604L1176 603z"/>
<path style="fill:#3b676b; stroke:none;" d="M822 604L823 605L822 604z"/>
<path style="fill:#45917b; stroke:none;" d="M877 604L878 605L877 604M1122 604L1123 605L1122 604z"/>
<path style="fill:#3b676b; stroke:none;" d="M1177 604L1178 605L1177 604z"/>
<path style="fill:#45917b; stroke:none;" d="M822 605L823 606L822 605M1177 605L1178 606L1177 605z"/>
<path style="fill:#3b676b; stroke:none;" d="M821 606L822 607L821 606z"/>
<path style="fill:#45917b; stroke:none;" d="M878 606L879 607L878 606M1121 606L1122 607L1121 606z"/>
<path style="fill:#3b676b; stroke:none;" d="M1178 606L1179 607L1178 606z"/>
<path style="fill:#45917b; stroke:none;" d="M821 607L822 608L821 607M1178 607L1179 608L1178 607z"/>
<path style="fill:#3b676b; stroke:none;" d="M820 608L821 609L820 608z"/>
<path style="fill:#45917b; stroke:none;" d="M879 608L880 609L879 608M1120 608L1121 609L1120 608z"/>
<path style="fill:#3b676b; stroke:none;" d="M1179 608L1180 609L1179 608z"/>
<path style="fill:#45917b; stroke:none;" d="M820 609L821 610L820 609M1179 609L1180 610L1179 609z"/>
<path style="fill:#3b676b; stroke:none;" d="M819 610L820 611L819 610z"/>
<path style="fill:#45917b; stroke:none;" d="M880 610L881 611L880 610M1119 610L1120 611L1119 610z"/>
<path style="fill:#3b676b; stroke:none;" d="M1180 610L1181 611L1180 610z"/>
<path style="fill:#45917b; stroke:none;" d="M819 611L820 612L819 611M1180 611L1181 612L1180 611z"/>
<path style="fill:#3b676b; stroke:none;" d="M818 612L819 613L818 612z"/>
<path style="fill:#45917b; stroke:none;" d="M881 612L882 613L881 612M1118 612L1119 613L1118 612z"/>
<path style="fill:#3b676b; stroke:none;" d="M1181 612L1182 613L1181 612z"/>
<path style="fill:#45917b; stroke:none;" d="M818 613L819 614L818 613M1181 613L1182 614L1181 613z"/>
<path style="fill:#3b676b; stroke:none;" d="M817 614L818 615L817 614z"/>
<path style="fill:#45917b; stroke:none;" d="M882 614L883 615L882 614M1117 614L1118 615L1117 614z"/>
<path style="fill:#3b676b; stroke:none;" d="M1182 614L1183 615L1182 614z"/>
<path style="fill:#45917b; stroke:none;" d="M817 615L818 616L817 615M1182 615L1183 616L1182 615z"/>
<path style="fill:#3b676b; stroke:none;" d="M816 616L817 617L816 616z"/>
<path style="fill:#45917b; stroke:none;" d="M883 616L884 617L883 616M1116 616L1117 617L1116 616z"/>
<path style="fill:#3b676b; stroke:none;" d="M1183 616L1184 617L1183 616z"/>
<path style="fill:#45917b; stroke:none;" d="M816 617L817 618L816 617M1183 617L1184 618L1183 617z"/>
<path style="fill:#3b676b; stroke:none;" d="M815 618L816 619L815 618z"/>
<path style="fill:#45917b; stroke:none;" d="M884 618L885 619L884 618M1115 618L1116 619L1115 618z"/>
<path style="fill:#3b676b; stroke:none;" d="M1184 618L1185 619L1184 618z"/>
<path style="fill:#45917b; stroke:none;" d="M815 619L816 620L815 619M1184 619L1185 620L1184 619z"/>
<path style="fill:#3b676b; stroke:none;" d="M814 620L815 621L814 620z"/>
<path style="fill:#45917b; stroke:none;" d="M885 620L886 621L885 620M1114 620L1115 621L1114 620z"/>
<path style="fill:#3b676b; stroke:none;" d="M1185 620L1186 621L1185 620z"/>
<path style="fill:#45917b; stroke:none;" d="M814 621L815 622L814 621M1185 621L1186 622L1185 621z"/>
<path style="fill:#3b676b; stroke:none;" d="M813 622L814 623L813 622z"/>
<path style="fill:#45917b; stroke:none;" d="M886 622L887 623L886 622M1113 622L1114 623L1113 622z"/>
<path style="fill:#3b676b; stroke:none;" d="M1186 622L1187 623L1186 622z"/>
<path style="fill:#45917b; stroke:none;" d="M813 623L814 624L813 623M1186 623L1187 624L1186 623z"/>
<path style="fill:#3b676b; stroke:none;" d="M812 624L813 625L812 624z"/>
<path style="fill:#45917b; stroke:none;" d="M887 624L888 625L887 624M1112 624L1113 625L1112 624z"/>
<path style="fill:#3b676b; stroke:none;" d="M1187 624L1188 625L1187 624z"/>
<path style="fill:#45917b; stroke:none;" d="M812 625L813 626L812 625M1187 625L1188 626L1187 625z"/>
<path style="fill:#3b676b; stroke:none;" d="M811 626L812 627L811 626z"/>
<path style="fill:#45917b; stroke:none;" d="M888 626L889 627L888 626M1111 626L1112 627L1111 626z"/>
<path style="fill:#3b676b; stroke:none;" d="M1188 626L1189 627L1188 626z"/>
<path style="fill:#45917b; stroke:none;" d="M811 627L812 628L811 627M1188 627L1189 628L1188 627z"/>
<path style="fill:#3b676b; stroke:none;" d="M810 628L811 629L810 628z"/>
<path style="fill:#45917b; stroke:none;" d="M889 628L890 629L889 628M1110 628L1111 629L1110 628z"/>
<path style="fill:#3b676b; stroke:none;" d="M1189 628L1190 629L1189 628z"/>
<path style="fill:#45917b; stroke:none;" d="M810 629L811 630L810 629M1189 629L1190 630L1189 629z"/>
<path style="fill:#3b676b; stroke:none;" d="M809 630L810 631L809 630z"/>
<path style="fill:#45917b; stroke:none;" d="M890 630L891 631L890 630M1109 630L1110 631L1109 630z"/>
<path style="fill:#3b676b; stroke:none;" d="M1190 630L1191 631L1190 630z"/>
<path style="fill:#45917b; stroke:none;" d="M809 631L810 632L809 631M1190 631L1191 632L1190 631z"/>
<path style="fill:#3b676b; stroke:none;" d="M808 632L809 633L808 632z"/>
<path style="fill:#45917b; stroke:none;" d="M891 632L892 633L891 632M1108 632L1109 633L1108 632z"/>
<path style="fill:#3b676b; stroke:none;" d="M1191 632L1192 633L1191 632z"/>
<path style="fill:#45917b; stroke:none;" d="M808 633L809 634L808 633M1191 633L1192 634L1191 633z"/>
<path style="fill:#3b676b; stroke:none;" d="M807 634L808 635L807 634z"/>
<path style="fill:#45917b; stroke:none;" d="M892 634L893 635L892 634M1107 634L1108 635L1107 634z"/>
<path style="fill:#3b676b; stroke:none;" d="M1192 634L1193 635L1192 634z"/>
<path style="fill:#45917b; stroke:none;" d="M807 635L808 636L807 635M1192 635L1193 636L1192 635z"/>
<path style="fill:#3b676b; stroke:none;" d="M806 636L807 637L806 636z"/>
<path style="fill:#45917b; stroke:none;" d="M893 636L894 637L893 636M1106 636L1107 637L1106 636z"/>
<path style="fill:#3b676b; stroke:none;" d="M1193 636L1194 637L1193 636z"/>
<path style="fill:#45917b; stroke:none;" d="M806 637L807 638L806 637M1193 637L1194 638L1193 637z"/>
<path style="fill:#3b676b; stroke:none;" d="M805 638L806 639L805 638z"/>
<path style="fill:#45917b; stroke:none;" d="M894 638L895 639L894 638M1105 638L1106 639L1105 638z"/>
<path style="fill:#3b676b; stroke:none;" d="M1194 638L1195 639L1194 638z"/>
<path style="fill:#45917b; stroke:none;" d="M805 639L806 640L805 639M1194 639L1195 640L1194 639z"/>
<path style="fill:#3b676b; stroke:none;" d="M804 640L805 641L804 640z"/>
<path style="fill:#45917b; stroke:none;" d="M895 640L896 641L895 640M1104 640L1105 641L1104 640z"/>
<path style="fill:#3b676b; stroke:none;" d="M1195 640L1196 641L1195 640z"/>
<path style="fill:#45917b; stroke:none;" d="M804 641L805 642L804 641M1195 641L1196 642L1195 641z"/>
<path style="fill:#3b676b; stroke:none;" d="M803 642L804 643L803 642z"/>
<path style="fill:#45917b; stroke:none;" d="M896 642L897 643L896 642M1103 642L1104 643L1103 642z"/>
<path style="fill:#3b676b; stroke:none;" d="M1196 642L1197 643L1196 642z"/>
<path style="fill:#45917b; stroke:none;" d="M803 643L804 644L803 643M1196 643L1197 644L1196 643z"/>
<path style="fill:#3b676b; stroke:none;" d="M802 644L803 645L802 644z"/>
<path style="fill:#45917b; stroke:none;" d="M897 644L898 645L897 644M1102 644L1103 645L1102 644z"/>
<path style="fill:#3b676b; stroke:none;" d="M1197 644L1198 645L1197 644z"/>
<path style="fill:#45917b; stroke:none;" d="M802 645L803 646L802 645M1197 645L1198 646L1197 645z"/>
<path style="fill:#3b676b; stroke:none;" d="M801 646L802 647L801 646z"/>
<path style="fill:#45917b; stroke:none;" d="M898 646L899 647L898 646M1101 646L1102 647L1101 646z"/>
<path style="fill:#3b676b; stroke:none;" d="M1198 646L1199 647L1198 646z"/>
<path style="fill:#45917b; stroke:none;" d="M801 647L802 648L801 647M1198 647L1199 648L1198 647z"/>
<path style="fill:#3b676b; stroke:none;" d="M800 648L801 649L800 648z"/>
<path style="fill:#45917b; stroke:none;" d="M899 648L900 649L899 648M1100 648L1101 649L1100 648z"/>
<path style="fill:#3b676b; stroke:none;" d="M1199 648L1200 649L1199 648z"/>
<path style="fill:#45917b; stroke:none;" d="M800 649L801 650L800 649M1199 649L1200 650L1199 649z"/>
<path style="fill:#3b676b; stroke:none;" d="M799 650L800 651L799 650z"/>
<path style="fill:#45917b; stroke:none;" d="M900 650L901 651L900 650M1099 650L1100 651L1099 650z"/>
<path style="fill:#3b676b; stroke:none;" d="M1200 650L1201 651L1200 650z"/>
<path style="fill:#45917b; stroke:none;" d="M799 651L800 652L799 651M1200 651L1201 652L1200 651z"/>
<path style="fill:#3b676b; stroke:none;" d="M798 652L799 653L798 652z"/>
<path style="fill:#45917b; stroke:none;" d="M901 652L902 653L901 652M1098 652L1099 653L1098 652z"/>
<path style="fill:#3b676b; stroke:none;" d="M1201 652L1202 653L1201 652z"/>
<path style="fill:#45917b; stroke:none;" d="M798 653L799 654L798 653M1201 653L1202 654L1201 653z"/>
<path style="fill:#3b676b; stroke:none;" d="M797 654L798 655L797 654z"/>
<path style="fill:#45917b; stroke:none;" d="M902 654L903 655L902 654M1097 654L1098 655L1097 654z"/>
<path style="fill:#3b676b; stroke:none;" d="M1202 654L1203 655L1202 654z"/>
<path style="fill:#45917b; stroke:none;" d="M797 655L798 656L797 655M1202 655L1203 656L1202 655z"/>
<path style="fill:#3b676b; stroke:none;" d="M796 656L797 657L796 656z"/>
<path style="fill:#45917b; stroke:none;" d="M903 656L904 657L903 656M1096 656L1097 657L1096 656z"/>
<path style="fill:#3b676b; stroke:none;" d="M1203 656L1204 657L1203 656z"/>
<path style="fill:#45917b; stroke:none;" d="M796 657L797 658L796 657M1203 657L1204 658L1203 657z"/>
<path style="fill:#3b676b; stroke:none;" d="M795 658L796 659L795 658z"/>
<path style="fill:#45917b; stroke:none;" d="M904 658L905 659L904 658M1095 658L1096 659L1095 658z"/>
<path style="fill:#3b676b; stroke:none;" d="M1204 658L1205 659L1204 658z"/>
<path style="fill:#45917b; stroke:none;" d="M795 659L796 660L795 659M1204 659L1205 660L1204 659z"/>
<path style="fill:#3b676b; stroke:none;" d="M794 660L795 661L794 660z"/>
<path style="fill:#45917b; stroke:none;" d="M905 660L906 661L905 660M1094 660L1095 661L1094 660z"/>
<path style="fill:#3b676b; stroke:none;" d="M1205 660L1206 661L1205 660z"/>
<path style="fill:#45917b; stroke:none;" d="M794 661L795 662L794 661M1205 661L1206 662L1205 661z"/>
<path style="fill:#3b676b; stroke:none;" d="M793 662L794 663L793 662z"/>
<path style="fill:#45917b; stroke:none;" d="M906 662L907 663L906 662M1093 662L1094 663L1093 662z"/>
<path style="fill:#3b676b; stroke:none;" d="M1206 662L1207 663L1206 662z"/>
<path style="fill:#45917b; stroke:none;" d="M793 663L794 664L793 663M1206 663L1207 664L1206 663z"/>
<path style="fill:#3b676b; stroke:none;" d="M792 664L793 665L792 664z"/>
<path style="fill:#45917b; stroke:none;" d="M907 664L908 665L907 664M1092 664L1093 665L1092 664z"/>
<path style="fill:#3b676b; stroke:none;" d="M1207 664L1208 665L1207 664z"/>
<path style="fill:#45917b; stroke:none;" d="M792 665L793 666L792 665M1207 665L1208 666L1207 665z"/>
<path style="fill:#3b676b; stroke:none;" d="M791 666L792 667L791 666z"/>
<path style="fill:#45917b; stroke:none;" d="M908 666L909 667L908 666M1091 666L1092 667L1091 666z"/>
<path style="fill:#3b676b; stroke:none;" d="M1208 666L1209 667L1208 666z"/>
<path style="fill:#45917b; stroke:none;" d="M791 667L792 668L791 667M1208 667L1209 668L1208 667z"/>
<path style="fill:#3b676b; stroke:none;" d="M790 668L791 669L790 668z"/>
<path style="fill:#45917b; stroke:none;" d="M909 668L910 669L909 668M1090 668L1091 669L1090 668z"/>
<path style="fill:#3b676b; stroke:none;" d="M1209 668L1210 669L1209 668z"/>
<path style="fill:#45917b; stroke:none;" d="M790 669L791 670L790 669M1209 669L1210 670L1209 669z"/>
<path style="fill:#3b676b; stroke:none;" d="M789 670L790 671L789 670z"/>
<path style="fill:#45917b; stroke:none;" d="M910 670L911 671L910 670M1089 670L1090 671L1089 670z"/>
<path style="fill:#3b676b; stroke:none;" d="M1210 670L1211 671L1210 670z"/>
<path style="fill:#45917b; stroke:none;" d="M789 671L790 672L789 671M1210 671L1211 672L1210 671z"/>
<path style="fill:#3b676b; stroke:none;" d="M788 672L789 673L788 672z"/>
<path style="fill:#45917b; stroke:none;" d="M911 672L912 673L911 672M1088 672L1089 673L1088 672z"/>
<path style="fill:#3b676b; stroke:none;" d="M1211 672L1212 673L1211 672z"/>
<path style="fill:#45917b; stroke:none;" d="M788 673L789 674L788 673M1211 673L1212 674L1211 673z"/>
<path style="fill:#3b676b; stroke:none;" d="M787 674L788 675L787 674z"/>
<path style="fill:#45917b; stroke:none;" d="M912 674L913 675L912 674M1087 674L1088 675L1087 674z"/>
<path style="fill:#3b676b; stroke:none;" d="M1212 674L1213 675L1212 674z"/>
<path style="fill:#45917b; stroke:none;" d="M787 675L788 676L787 675M1212 675L1213 676L1212 675z"/>
<path style="fill:#3b676b; stroke:none;" d="M786 676L787 677L786 676z"/>
<path style="fill:#45917b; stroke:none;" d="M913 676L914 677L913 676M1086 676L1087 677L1086 676z"/>
<path style="fill:#3b676b; stroke:none;" d="M1213 676L1214 677L1213 676z"/>
<path style="fill:#45917b; stroke:none;" d="M786 677L787 678L786 677M1213 677L1214 678L1213 677z"/>
<path style="fill:#3b676b; stroke:none;" d="M785 678L786 679L785 678z"/>
<path style="fill:#45917b; stroke:none;" d="M914 678L915 679L914 678M1085 678L1086 679L1085 678z"/>
<path style="fill:#3b676b; stroke:none;" d="M1214 678L1215 679L1214 678z"/>
<path style="fill:#45917b; stroke:none;" d="M785 679L786 680L785 679M1214 679L1215 680L1214 679z"/>
<path style="fill:#3b676b; stroke:none;" d="M784 680L785 681L784 680z"/>
<path style="fill:#45917b; stroke:none;" d="M915 680L916 681L915 680M1084 680L1085 681L1084 680z"/>
<path style="fill:#3b676b; stroke:none;" d="M1215 680L1216 681L1215 680z"/>
<path style="fill:#45917b; stroke:none;" d="M784 681L785 682L784 681M1215 681L1216 682L1215 681z"/>
<path style="fill:#3b676b; stroke:none;" d="M783 682L784 683L783 682z"/>
<path style="fill:#45917b; stroke:none;" d="M916 682L917 683L916 682M1083 682L1084 683L1083 682z"/>
<path style="fill:#3b676b; stroke:none;" d="M1216 682L1217 683L1216 682z"/>
<path style="fill:#45917b; stroke:none;" d="M783 683L784 684L783 683M1216 683L1217 684L1216 683z"/>
<path style="fill:#3b676b; stroke:none;" d="M782 684L783 685L782 684z"/>
<path style="fill:#45917b; stroke:none;" d="M917 684L918 685L917 684M1082 684L1083 685L1082 684z"/>
<path style="fill:#3b676b; stroke:none;" d="M1217 684L1218 685L1217 684z"/>
<path style="fill:#45917b; stroke:none;" d="M782 685L783 686L782 685M1217 685L1218 686L1217 685z"/>
<path style="fill:#3b676b; stroke:none;" d="M781 686L782 687L781 686z"/>
<path style="fill:#45917b; stroke:none;" d="M918 686L919 687L918 686M1081 686L1082 687L1081 686z"/>
<path style="fill:#3b676b; stroke:none;" d="M1218 686L1219 687L1218 686z"/>
<path style="fill:#45917b; stroke:none;" d="M781 687L782 688L781 687M1218 687L1219 688L1218 687z"/>
<path style="fill:#3b676b; stroke:none;" d="M780 688L781 689L780 688z"/>
<path style="fill:#45917b; stroke:none;" d="M919 688L920 689L919 688M1080 688L1081 689L1080 688z"/>
<path style="fill:#3b676b; stroke:none;" d="M1219 688L1220 689L1219 688z"/>
<path style="fill:#45917b; stroke:none;" d="M780 689L781 690L780 689M1219 689L1220 690L1219 689z"/>
<path style="fill:#3b676b; stroke:none;" d="M779 690L780 691L779 690z"/>
<path style="fill:#45917b; stroke:none;" d="M920 690L921 691L920 690M1079 690L1080 691L1079 690z"/>
<path style="fill:#3b676b; stroke:none;" d="M1220 690L1221 691L1220 690z"/>
<path style="fill:#45917b; stroke:none;" d="M779 691L780 692L779 691M1220 691L1221 692L1220 691z"/>
<path style="fill:#3b676b; stroke:none;" d="M778 692L779 693L778 692z"/>
<path style="fill:#45917b; stroke:none;" d="M921 692L922 693L921 692M1078 692L1079 693L1078 692z"/>
<path style="fill:#3b676b; stroke:none;" d="M1221 692L1222 693L1221 692z"/>
<path style="fill:#45917b; stroke:none;" d="M778 693L779 694L778 693M1221 693L1222 694L1221 693z"/>
<path style="fill:#3b676b; stroke:none;" d="M777 694L778 695L777 694z"/>
<path style="fill:#45917b; stroke:none;" d="M922 694L923 695L922 694M1077 694L1078 695L1077 694z"/>
<path style="fill:#3b676b; stroke:none;" d="M1222 694L1223 695L1222 694z"/>
<path style="fill:#45917b; stroke:none;" d="M777 695L778 696L777 695M1222 695L1223 696L1222 695z"/>
<path style="fill:#3b676b; stroke:none;" d="M776 696L777 697L776 696z"/>
<path style="fill:#45917b; stroke:none;" d="M923 696L924 697L923 696M1076 696L1077 697L1076 696z"/>
<path style="fill:#3b676b; stroke:none;" d="M1223 696L1224 697L1223 696z"/>
<path style="fill:#45917b; stroke:none;" d="M776 697L777 698L776 697M1223 697L1224 698L1223 697z"/>
<path style="fill:#3b676b; stroke:none;" d="M775 698L776 699L775 698z"/>
<path style="fill:#45917b; stroke:none;" d="M924 698L925 699L924 698M1075 698L1076 699L1075 698z"/>
<path style="fill:#3b676b; stroke:none;" d="M1224 698L1225 699L1224 698z"/>
<path style="fill:#45917b; stroke:none;" d="M775 699L776 700L775 699M1224 699L1225 700L1224 699z"/>
<path style="fill:#3b676b; stroke:none;" d="M774 700L775 701L774 700z"/>
<path style="fill:#45917b; stroke:none;" d="M925 700L926 701L925 700M1074 700L1075 701L1074 700z"/>
<path style="fill:#3b676b; stroke:none;" d="M1225 700L1226 701L1225 700z"/>
<path style="fill:#45917b; stroke:none;" d="M774 701L775 702L774 701M1225 701L1226 702L1225 701z"/>
<path style="fill:#3b676b; stroke:none;" d="M773 702L774 703L773 702z"/>
<path style="fill:#45917b; stroke:none;" d="M926 702L927 703L926 702M1073 702L1074 703L1073 702z"/>
<path style="fill:#3b676b; stroke:none;" d="M1226 702L1227 703L1226 702z"/>
<path style="fill:#45917b; stroke:none;" d="M773 703L774 704L773 703M1226 703L1227 704L1226 703z"/>
<path style="fill:#3b676b; stroke:none;" d="M772 704L773 705L772 704z"/>
<path style="fill:#45917b; stroke:none;" d="M927 704L928 705L927 704M1072 704L1073 705L1072 704z"/>
<path style="fill:#3b676b; stroke:none;" d="M1227 704L1228 705L1227 704z"/>
<path style="fill:#45917b; stroke:none;" d="M772 705L773 706L772 705M1227 705L1228 706L1227 705z"/>
<path style="fill:#3b676b; stroke:none;" d="M771 706L772 707L771 706z"/>
<path style="fill:#45917b; stroke:none;" d="M928 706L929 707L928 706M1071 706L1072 707L1071 706z"/>
<path style="fill:#3b676b; stroke:none;" d="M1228 706L1229 707L1228 706z"/>
<path style="fill:#45917b; stroke:none;" d="M771 707L772 708L771 707M1228 707L1229 708L1228 707z"/>
<path style="fill:#3b676b; stroke:none;" d="M770 708L771 709L770 708z"/>
<path style="fill:#45917b; stroke:none;" d="M929 708L930 709L929 708M1070 708L1071 709L1070 708z"/>
<path style="fill:#3b676b; stroke:none;" d="M1229 708L1230 709L1229 708z"/>
<path style="fill:#45917b; stroke:none;" d="M770 709L771 710L770 709M1229 709L1230 710L1229 709z"/>
<path style="fill:#3b676b; stroke:none;" d="M769 710L770 711L769 710z"/>
<path style="fill:#45917b; stroke:none;" d="M930 710L931 711L930 710M1069 710L1070 711L1069 710z"/>
<path style="fill:#3b676b; stroke:none;" d="M1230 710L1231 711L1230 710z"/>
<path style="fill:#45917b; stroke:none;" d="M769 711L770 712L769 711M1230 711L1231 712L1230 711z"/>
<path style="fill:#3b676b; stroke:none;" d="M768 712L769 713L768 712z"/>
<path style="fill:#45917b; stroke:none;" d="M931 712L932 713L931 712M1068 712L1069 713L1068 712z"/>
<path style="fill:#3b676b; stroke:none;" d="M1231 712L1232 713L1231 712z"/>
<path style="fill:#45917b; stroke:none;" d="M768 713L769 714L768 713M1231 713L1232 714L1231 713z"/>
<path style="fill:#3b676b; stroke:none;" d="M767 714L768 715L767 714z"/>
<path style="fill:#45917b; stroke:none;" d="M932 714L933 715L932 714M1067 714L1068 715L1067 714z"/>
<path style="fill:#3b676b; stroke:none;" d="M1232 714L1233 715L1232 714z"/>
<path style="fill:#45917b; stroke:none;" d="M767 715L768 716L767 715M1232 715L1233 716L1232 715z"/>
<path style="fill:#3b676b; stroke:none;" d="M766 716L767 717L766 716z"/>
<path style="fill:#45917b; stroke:none;" d="M933 716L934 717L933 716M1066 716L1067 717L1066 716z"/>
<path style="fill:#3b676b; stroke:none;" d="M1233 716L1234 717L1233 716z"/>
<path style="fill:#45917b; stroke:none;" d="M766 717L767 718L766 717M1233 717L1234 718L1233 717z"/>
<path style="fill:#3b676b; stroke:none;" d="M765 718L766 719L765 718z"/>
<path style="fill:#45917b; stroke:none;" d="M934 718L935 719L934 718M1065 718L1066 719L1065 718z"/>
<path style="fill:#3b676b; stroke:none;" d="M1234 718L1235 719L1234 718z"/>
<path style="fill:#45917b; stroke:none;" d="M765 719L766 720L765 719M1234 719L1235 720L1234 719z"/>
<path style="fill:#3b676b; stroke:none;" d="M764 720L765 721L764 720z"/>
<path style="fill:#45917b; stroke:none;" d="M935 720L936 721L935 720M1064 720L1065 721L1064 720z"/>
<path style="fill:#3b676b; stroke:none;" d="M1235 720L1236 721L1235 720z"/>
<path style="fill:#45917b; stroke:none;" d="M764 721L765 722L764 721M1235 721L1236 722L1235 721z"/>
<path style="fill:#3b676b; stroke:none;" d="M763 722L764 723L763 722z"/>
<path style="fill:#45917b; stroke:none;" d="M936 722L937 723L936 722M1063 722L1064 723L1063 722z"/>
<path style="fill:#3b676b; stroke:none;" d="M1236 722L1237 723L1236 722z"/>
<path style="fill:#45917b; stroke:none;" d="M763 723L764 724L763 723M1236 723L1237 724L1236 723z"/>
<path style="fill:#3b676b; stroke:none;" d="M762 724L763 725L762 724z"/>
<path style="fill:#45917b; stroke:none;" d="M937 724L938 725L937 724M1062 724L1063 725L1062 724z"/>
<path style="fill:#3b676b; stroke:none;" d="M1237 724L1238 725L1237 724z"/>
<path style="fill:#45917b; stroke:none;" d="M762 725L763 726L762 725M1237 725L1238 726L1237 725z"/>
<path style="fill:#3b676b; stroke:none;" d="M761 726L762 727L761 726z"/>
<path style="fill:#45917b; stroke:none;" d="M938 726L939 727L938 726M1061 726L1062 727L1061 726z"/>
<path style="fill:#3b676b; stroke:none;" d="M1238 726L1239 727L1238 726z"/>
<path style="fill:#45917b; stroke:none;" d="M761 727L762 728L761 727M1238 727L1239 728L1238 727z"/>
<path style="fill:#3b676b; stroke:none;" d="M760 728L761 729L760 728z"/>
<path style="fill:#45917b; stroke:none;" d="M939 728L940 729L939 728M1060 728L1061 729L1060 728z"/>
<path style="fill:#3b676b; stroke:none;" d="M1239 728L1240 729L1239 728z"/>
<path style="fill:#45917b; stroke:none;" d="M760 729L761 730L760 729M1239 729L1240 730L1239 729z"/>
<path style="fill:#3b676b; stroke:none;" d="M759 730L760 731L759 730z"/>
<path style="fill:#45917b; stroke:none;" d="M940 730L941 731L940 730M1059 730L1060 731L1059 730z"/>
<path style="fill:#3b676b; stroke:none;" d="M1240 730L1241 731L1240 730z"/>
<path style="fill:#45917b; stroke:none;" d="M759 731L760 732L759 731M1240 731L1241 732L1240 731z"/>
<path style="fill:#3b676b; stroke:none;" d="M758 732L759 733L758 732z"/>
<path style="fill:#45917b; stroke:none;" d="M941 732L942 733L941 732M1058 732L1059 733L1058 732z"/>
<path style="fill:#3b676b; stroke:none;" d="M1241 732L1242 733L1241 732z"/>
<path style="fill:#45917b; stroke:none;" d="M758 733L759 734L758 733M1241 733L1242 734L1241 733z"/>
<path style="fill:#3b676b; stroke:none;" d="M757 734L758 735L757 734z"/>
<path style="fill:#45917b; stroke:none;" d="M942 734L943 735L942 734M1057 734L1058 735L1057 734z"/>
<path style="fill:#3b676b; stroke:none;" d="M1242 734L1243 735L1242 734z"/>
<path style="fill:#45917b; stroke:none;" d="M757 735L758 736L757 735M1242 735L1243 736L1242 735z"/>
<path style="fill:#3b676b; stroke:none;" d="M756 736L757 737L756 736z"/>
<path style="fill:#45917b; stroke:none;" d="M943 736L944 737L943 736M1056 736L1057 737L1056 736z"/>
<path style="fill:#3b676b; stroke:none;" d="M1243 736L1244 737L1243 736z"/>
<path style="fill:#45917b; stroke:none;" d="M756 737L757 738L756 737M1243 737L1244 738L1243 737z"/>
<path style="fill:#3b676b; stroke:none;" d="M755 738L756 739L755 738z"/>
<path style="fill:#45917b; stroke:none;" d="M944 738L945 739L944 738M1055 738L1056 739L1055 738z"/>
<path style="fill:#3b676b; stroke:none;" d="M1244 738L1245 739L1244 738z"/>
<path style="fill:#45917b; stroke:none;" d="M755 739L756 740L755 739M1244 739L1245 740L1244 739z"/>
<path style="fill:#3b676b; stroke:none;" d="M754 740L755 741L754 740z"/>
<path style="fill:#45917b; stroke:none;" d="M945 740L946 741L945 740M1054 740L1055 741L1054 740z"/>
<path style="fill:#3b676b; stroke:none;" d="M1245 740L1246 741L1245 740z"/>
<path style="fill:#45917b; stroke:none;" d="M754 741L755 742L754 741M1245 741L1246 742L1245 741z"/>
<path style="fill:#3b676b; stroke:none;" d="M753 742L754 743L753 742z"/>
<path style="fill:#45917b; stroke:none;" d="M946 742L947 743L946 742M1053 742L1054 743L1053 742z"/>
<path style="fill:#3b676b; stroke:none;" d="M1246 742L1247 743L1246 742z"/>
<path style="fill:#45917b; stroke:none;" d="M753 743L754 744L753 743M1246 743L1247 744L1246 743z"/>
<path style="fill:#3b676b; stroke:none;" d="M752 744L753 745L752 744z"/>
<path style="fill:#45917b; stroke:none;" d="M947 744L948 745L947 744M1052 744L1053 745L1052 744z"/>
<path style="fill:#3b676b; stroke:none;" d="M1247 744L1248 745L1247 744z"/>
<path style="fill:#45917b; stroke:none;" d="M752 745L753 746L752 745M1247 745L1248 746L1247 745z"/>
<path style="fill:#3b676b; stroke:none;" d="M751 746L752 747L751 746z"/>
<path style="fill:#45917b; stroke:none;" d="M948 746L949 747L948 746M1051 746L1052 747L1051 746z"/>
<path style="fill:#3b676b; stroke:none;" d="M1248 746L1249 747L1248 746z"/>
<path style="fill:#45917b; stroke:none;" d="M751 747L752 748L751 747M1248 747L1249 748L1248 747z"/>
<path style="fill:#3b676b; stroke:none;" d="M750 748L751 749L750 748z"/>
<path style="fill:#45917b; stroke:none;" d="M949 748L950 749L949 748M1050 748L1051 749L1050 748z"/>
<path style="fill:#3b676b; stroke:none;" d="M1249 748L1250 749L1249 748z"/>
<path style="fill:#45917b; stroke:none;" d="M750 749L751 750L750 749M1249 749L1250 750L1249 749z"/>
<path style="fill:#3b676b; stroke:none;" d="M749 750L750 751L749 750z"/>
<path style="fill:#45917b; stroke:none;" d="M950 750L951 751L950 750M1049 750L1050 751L1049 750z"/>
<path style="fill:#3b676b; stroke:none;" d="M1250 750L1251 751L1250 750z"/>
<path style="fill:#45917b; stroke:none;" d="M749 751L750 752L749 751M1250 751L1251 752L1250 751z"/>
<path style="fill:#3b676b; stroke:none;" d="M748 752L749 753L748 752z"/>
<path style="fill:#45917b; stroke:none;" d="M951 752L952 753L951 752M1048 752L1049 753L1048 752z"/>
<path style="fill:#3b676b; stroke:none;" d="M1251 752L1252 753L1251 752z"/>
<path style="fill:#45917b; stroke:none;" d="M748 753L749 754L748 753M1251 753L1252 754L1251 753z"/>
<path style="fill:#3b676b; stroke:none;" d="M747 754L748 755L747 754z"/>
<path style="fill:#45917b; stroke:none;" d="M952 754L953 755L952 754M1047 754L1048 755L1047 754z"/>
<path style="fill:#3b676b; stroke:none;" d="M1252 754L1253 755L1252 754z"/>
<path style="fill:#45917b; stroke:none;" d="M747 755L748 756L747 755M1252 755L1253 756L1252 755z"/>
<path style="fill:#3b676b; stroke:none;" d="M746 756L747 757L746 756z"/>
<path style="fill:#45917b; stroke:none;" d="M953 756L954 757L953 756M1046 756L1047 757L1046 756z"/>
<path style="fill:#3b676b; stroke:none;" d="M1253 756L1254 757L1253 756z"/>
<path style="fill:#45917b; stroke:none;" d="M746 757L747 758L746 757M1253 757L1254 758L1253 757z"/>
<path style="fill:#3b676b; stroke:none;" d="M745 758L746 759L745 758z"/>
<path style="fill:#45917b; stroke:none;" d="M954 758L955 759L954 758M1045 758L1046 759L1045 758z"/>
<path style="fill:#3b676b; stroke:none;" d="M1254 758L1255 759L1254 758z"/>
<path style="fill:#45917b; stroke:none;" d="M745 759L746 760L745 759M1254 759L1255 760L1254 759z"/>
<path style="fill:#3b676b; stroke:none;" d="M744 760L745 761L744 760z"/>
<path style="fill:#45917b; stroke:none;" d="M955 760L956 761L955 760M1044 760L1045 761L1044 760z"/>
<path style="fill:#3b676b; stroke:none;" d="M1255 760L1256 761L1255 760z"/>
<path style="fill:#45917b; stroke:none;" d="M744 761L745 762L744 761M1255 761L1256 762L1255 761z"/>
<path style="fill:#3b676b; stroke:none;" d="M743 762L744 763L743 762z"/>
<path style="fill:#45917b; stroke:none;" d="M956 762L957 763L956 762M1043 762L1044 763L1043 762z"/>
<path style="fill:#3b676b; stroke:none;" d="M1256 762L1257 763L1256 762z"/>
<path style="fill:#45917b; stroke:none;" d="M743 763L744 764L743 763M1256 763L1257 764L1256 763z"/>
<path style="fill:#3b676b; stroke:none;" d="M742 764L743 765L742 764z"/>
<path style="fill:#45917b; stroke:none;" d="M957 764L958 765L957 764M1042 764L1043 765L1042 764z"/>
<path style="fill:#3b676b; stroke:none;" d="M1257 764L1258 765L1257 764z"/>
<path style="fill:#45917b; stroke:none;" d="M742 765L743 766L742 765M1257 765L1258 766L1257 765z"/>
<path style="fill:#3b676b; stroke:none;" d="M741 766L742 767L741 766z"/>
<path style="fill:#45917b; stroke:none;" d="M958 766L959 767L958 766M1041 766L1042 767L1041 766z"/>
<path style="fill:#3b676b; stroke:none;" d="M1258 766L1259 767L1258 766z"/>
<path style="fill:#45917b; stroke:none;" d="M741 767L742 768L741 767M1258 767L1259 768L1258 767z"/>
<path style="fill:#3b676b; stroke:none;" d="M740 768L741 769L740 768z"/>
<path style="fill:#45917b; stroke:none;" d="M959 768L960 769L959 768M1040 768L1041 769L1040 768z"/>
<path style="fill:#3b676b; stroke:none;" d="M1259 768L1260 769L1259 768z"/>
<path style="fill:#45917b; stroke:none;" d="M740 769L741 770L740 769M1259 769L1260 770L1259 769z"/>
<path style="fill:#3b676b; stroke:none;" d="M739 770L740 771L739 770z"/>
<path style="fill:#45917b; stroke:none;" d="M960 770L961 771L960 770M1039 770L1040 771L1039 770z"/>
<path style="fill:#3b676b; stroke:none;" d="M1260 770L1261 771L1260 770z"/>
<path style="fill:#45917b; stroke:none;" d="M739 771L740 772L739 771M1260 771L1261 772L1260 771z"/>
<path style="fill:#3b676b; stroke:none;" d="M738 772L739 773L738 772z"/>
<path style="fill:#45917b; stroke:none;" d="M961 772L962 773L961 772M1038 772L1039 773L1038 772z"/>
<path style="fill:#3b676b; stroke:none;" d="M1261 772L1262 773L1261 772z"/>
<path style="fill:#45917b; stroke:none;" d="M738 773L739 774L738 773M1261 773L1262 774L1261 773z"/>
<path style="fill:#3b676b; stroke:none;" d="M737 774L738 775L737 774z"/>
<path style="fill:#45917b; stroke:none;" d="M962 774L963 775L962 774M1037 774L1038 775L1037 774z"/>
<path style="fill:#3b676b; stroke:none;" d="M1262 774L1263 775L1262 774z"/>
<path style="fill:#45917b; stroke:none;" d="M737 775L738 776L737 775M1262 775L1263 776L1262 775z"/>
<path style="fill:#3b676b; stroke:none;" d="M736 776L737 777L736 776z"/>
<path style="fill:#45917b; stroke:none;" d="M963 776L964 777L963 776M1036 776L1037 777L1036 776z"/>
<path style="fill:#3b676b; stroke:none;" d="M1263 776L1264 777L1263 776z"/>
<path style="fill:#45917b; stroke:none;" d="M736 777L737 778L736 777M1263 777L1264 778L1263 777z"/>
<path style="fill:#3b676b; stroke:none;" d="M735 778L736 779L735 778z"/>
<path style="fill:#45917b; stroke:none;" d="M964 778L965 779L964 778M1035 778L1036 779L1035 778z"/>
<path style="fill:#3b676b; stroke:none;" d="M1264 778L1265 779L1264 778z"/>
<path style="fill:#45917b; stroke:none;" d="M735 779L736 780L735 779M1264 779L1265 780L1264 779z"/>
<path style="fill:#3b676b; stroke:none;" d="M734 780L735 781L734 780z"/>
<path style="fill:#45917b; stroke:none;" d="M965 780L966 781L965 780M1034 780L1035 781L1034 780z"/>
<path style="fill:#3b676b; stroke:none;" d="M1265 780L1266 781L1265 780z"/>
<path style="fill:#45917b; stroke:none;" d="M734 781L735 782L734 781M1265 781L1266 782L1265 781z"/>
<path style="fill:#3b676b; stroke:none;" d="M733 782L734 783L733 782z"/>
<path style="fill:#45917b; stroke:none;" d="M966 782L967 783L966 782M1033 782L1034 783L1033 782z"/>
<path style="fill:#3b676b; stroke:none;" d="M1266 782L1267 783L1266 782z"/>
<path style="fill:#45917b; stroke:none;" d="M733 783L734 784L733 783M1266 783L1267 784L1266 783z"/>
<path style="fill:#3b676b; stroke:none;" d="M732 784L733 785L732 784z"/>
<path style="fill:#45917b; stroke:none;" d="M967 784L968 785L967 784M1032 784L1033 785L1032 784z"/>
<path style="fill:#3b676b; stroke:none;" d="M1267 784L1268 785L1267 784z"/>
<path style="fill:#45917b; stroke:none;" d="M732 785L733 786L732 785M1267 785L1268 786L1267 785z"/>
<path style="fill:#3b676b; stroke:none;" d="M731 786L732 787L731 786z"/>
<path style="fill:#45917b; stroke:none;" d="M968 786L969 787L968 786M1031 786L1032 787L1031 786z"/>
<path style="fill:#3b676b; stroke:none;" d="M1268 786L1269 787L1268 786z"/>
<path style="fill:#45917b; stroke:none;" d="M731 787L732 788L731 787M1268 787L1269 788L1268 787z"/>
<path style="fill:#3b676b; stroke:none;" d="M730 788L731 789L730 788z"/>
<path style="fill:#45917b; stroke:none;" d="M969 788L970 789L969 788M1030 788L1031 789L1030 788z"/>
<path style="fill:#3b676b; stroke:none;" d="M1269 788L1270 789L1269 788z"/>
<path style="fill:#45917b; stroke:none;" d="M730 789L731 790L730 789M1269 789L1270 790L1269 789z"/>
<path style="fill:#3b676b; stroke:none;" d="M729 790L730 791L729 790z"/>
<path style="fill:#45917b; stroke:none;" d="M970 790L971 791L970 790M1029 790L1030 791L1029 790z"/>
<path style="fill:#3b676b; stroke:none;" d="M1270 790L1271 791L1270 790z"/>
<path style="fill:#45917b; stroke:none;" d="M729 791L730 792L729 791M1270 791L1271 792L1270 791z"/>
<path style="fill:#3b676b; stroke:none;" d="M728 792L729 793L728 792z"/>
<path style="fill:#45917b; stroke:none;" d="M971 792L972 793L971 792M1028 792L1029 793L1028 792z"/>
<path style="fill:#3b676b; stroke:none;" d="M1271 792L1272 793L1271 792z"/>
<path style="fill:#45917b; stroke:none;" d="M728 793L729 794L728 793M1271 793L1272 794L1271 793z"/>
<path style="fill:#3b676b; stroke:none;" d="M727 794L728 795L727 794z"/>
<path style="fill:#45917b; stroke:none;" d="M972 794L973 795L972 794M1027 794L1028 795L1027 794z"/>
<path style="fill:#3b676b; stroke:none;" d="M1272 794L1273 795L1272 794z"/>
<path style="fill:#45917b; stroke:none;" d="M727 795L728 796L727 795M1272 795L1273 796L1272 795z"/>
<path style="fill:#3b676b; stroke:none;" d="M726 796L727 797L726 796z"/>
<path style="fill:#45917b; stroke:none;" d="M973 796L974 797L973 796M1026 796L1027 797L1026 796z"/>
<path style="fill:#3b676b; stroke:none;" d="M1273 796L1274 797L1273 796z"/>
<path style="fill:#45917b; stroke:none;" d="M726 797L727 798L726 797M1273 797L1274 798L1273 797z"/>
<path style="fill:#3b676b; stroke:none;" d="M725 798L726 799L725 798z"/>
<path style="fill:#45917b; stroke:none;" d="M974 798L975 799L974 798M1025 798L1026 799L1025 798z"/>
<path style="fill:#3b676b; stroke:none;" d="M1274 798L1275 799L1274 798z"/>
<path style="fill:#45917b; stroke:none;" d="M725 799L726 800L725 799M1274 799L1275 800L1274 799z"/>
<path style="fill:#3b676b; stroke:none;" d="M724 800L725 801L724 800z"/>
<path style="fill:#45917b; stroke:none;" d="M975 800L976 801L975 800M1024 800L1025 801L1024 800z"/>
<path style="fill:#3b676b; stroke:none;" d="M1275 800L1276 801L1275 800z"/>
<path style="fill:#45917b; stroke:none;" d="M724 801L725 802L724 801M1275 801L1276 802L1275 801z"/>
<path style="fill:#3b676b; stroke:none;" d="M723 802L724 803L723 802z"/>
<path style="fill:#45917b; stroke:none;" d="M976 802L977 803L976 802M1023 802L1024 803L1023 802z"/>
<path style="fill:#3b676b; stroke:none;" d="M1276 802L1277 803L1276 802z"/>
<path style="fill:#45917b; stroke:none;" d="M723 803L724 804L723 803M1276 803L1277 804L1276 803z"/>
<path style="fill:#3b676b; stroke:none;" d="M722 804L723 805L722 804z"/>
<path style="fill:#45917b; stroke:none;" d="M977 804L978 805L977 804M1022 804L1023 805L1022 804z"/>
<path style="fill:#3b676b; stroke:none;" d="M1277 804L1278 805L1277 804z"/>
<path style="fill:#45917b; stroke:none;" d="M722 805L723 806L722 805M1277 805L1278 806L1277 805z"/>
<path style="fill:#3b676b; stroke:none;" d="M721 806L722 807L721 806z"/>
<path style="fill:#45917b; stroke:none;" d="M978 806L979 807L978 806M1021 806L1022 807L1021 806z"/>
<path style="fill:#3b676b; stroke:none;" d="M1278 806L1279 807L1278 806z"/>
<path style="fill:#45917b; stroke:none;" d="M721 807L722 808L721 807M1278 807L1279 808L1278 807z"/>
<path style="fill:#3b676b; stroke:none;" d="M720 808L721 809L720 808z"/>
<path style="fill:#45917b; stroke:none;" d="M979 808L980 809L979 808M1020 808L1021 809L1020 808z"/>
<path style="fill:#3b676b; stroke:none;" d="M1279 808L1280 809L1279 808z"/>
<path style="fill:#45917b; stroke:none;" d="M720 809L721 810L720 809M1279 809L1280 810L1279 809z"/>
<path style="fill:#3b676b; stroke:none;" d="M719 810L720 811L719 810z"/>
<path style="fill:#45917b; stroke:none;" d="M980 810L981 811L980 810M1019 810L1020 811L1019 810z"/>
<path style="fill:#3b676b; stroke:none;" d="M1280 810L1281 811L1280 810z"/>
<path style="fill:#45917b; stroke:none;" d="M719 811L720 812L719 811M1280 811L1281 812L1280 811z"/>
<path style="fill:#3b676b; stroke:none;" d="M718 812L719 813L718 812z"/>
<path style="fill:#45917b; stroke:none;" d="M981 812L982 813L981 812M1018 812L1019 813L1018 812z"/>
<path style="fill:#3b676b; stroke:none;" d="M1281 812L1282 813L1281 812z"/>
<path style="fill:#45917b; stroke:none;" d="M718 813L719 814L718 813M1281 813L1282 814L1281 813z"/>
<path style="fill:#3b676b; stroke:none;" d="M717 814L718 815L717 814z"/>
<path style="fill:#45917b; stroke:none;" d="M982 814L983 815L982 814M1017 814L1018 815L1017 814z"/>
<path style="fill:#3b676b; stroke:none;" d="M1282 814L1283 815L1282 814z"/>
<path style="fill:#45917b; stroke:none;" d="M717 815L718 816L717 815M1282 815L1283 816L1282 815z"/>
<path style="fill:#3b676b; stroke:none;" d="M716 816L717 817L716 816z"/>
<path style="fill:#45917b; stroke:none;" d="M983 816L984 817L983 816M1016 816L1017 817L1016 816z"/>
<path style="fill:#3b676b; stroke:none;" d="M1283 816L1284 817L1283 816z"/>
<path style="fill:#45917b; stroke:none;" d="M716 817L717 818L716 817M1283 817L1284 818L1283 817z"/>
<path style="fill:#3b676b; stroke:none;" d="M715 818L716 819L715 818z"/>
<path style="fill:#45917b; stroke:none;" d="M984 818L985 819L984 818M1015 818L1016 819L1015 818z"/>
<path style="fill:#3b676b; stroke:none;" d="M1284 818L1285 819L1284 818z"/>
<path style="fill:#45917b; stroke:none;" d="M715 819L716 820L715 819M1284 819L1285 820L1284 819z"/>
<path style="fill:#3b676b; stroke:none;" d="M714 820L715 821L714 820z"/>
<path style="fill:#45917b; stroke:none;" d="M985 820L986 821L985 820M1014 820L1015 821L1014 820z"/>
<path style="fill:#3b676b; stroke:none;" d="M1285 820L1286 821L1285 820z"/>
<path style="fill:#45917b; stroke:none;" d="M714 821L715 822L714 821M1285 821L1286 822L1285 821z"/>
<path style="fill:#3b676b; stroke:none;" d="M713 822L714 823L713 822z"/>
<path style="fill:#45917b; stroke:none;" d="M986 822L987 823L986 822M1013 822L1014 823L1013 822z"/>
<path style="fill:#3b676b; stroke:none;" d="M1286 822L1287 823L1286 822z"/>
<path style="fill:#45917b; stroke:none;" d="M713 823L714 824L713 823M1286 823L1287 824L1286 823z"/>
<path style="fill:#3b676b; stroke:none;" d="M712 824L713 825L712 824z"/>
<path style="fill:#45917b; stroke:none;" d="M987 824L988 825L987 824M1012 824L1013 825L1012 824z"/>
<path style="fill:#3b676b; stroke:none;" d="M1287 824L1288 825L1287 824z"/>
<path style="fill:#45917b; stroke:none;" d="M712 825L713 826L712 825M1287 825L1288 826L1287 825z"/>
<path style="fill:#3b676b; stroke:none;" d="M711 826L712 827L711 826z"/>
<path style="fill:#45917b; stroke:none;" d="M988 826L989 827L988 826M1011 826L1012 827L1011 826z"/>
<path style="fill:#3b676b; stroke:none;" d="M1288 826L1289 827L1288 826z"/>
<path style="fill:#45917b; stroke:none;" d="M711 827L712 828L711 827M1288 827L1289 828L1288 827z"/>
<path style="fill:#3b676b; stroke:none;" d="M710 828L711 829L710 828z"/>
<path style="fill:#45917b; stroke:none;" d="M989 828L990 829L989 828M1010 828L1011 829L1010 828z"/>
<path style="fill:#3b676b; stroke:none;" d="M1289 828L1290 829L1289 828z"/>
<path style="fill:#45917b; stroke:none;" d="M710 829L711 830L710 829M1289 829L1290 830L1289 829z"/>
<path style="fill:#3b676b; stroke:none;" d="M709 830L710 831L709 830z"/>
<path style="fill:#45917b; stroke:none;" d="M990 830L991 831L990 830M1009 830L1010 831L1009 830z"/>
<path style="fill:#3b676b; stroke:none;" d="M1290 830L1291 831L1290 830z"/>
<path style="fill:#45917b; stroke:none;" d="M709 831L710 832L709 831M1290 831L1291 832L1290 831z"/>
<path style="fill:#3b676b; stroke:none;" d="M708 832L709 833L708 832z"/>
<path style="fill:#45917b; stroke:none;" d="M991 832L992 833L991 832M1008 832L1009 833L1008 832z"/>
<path style="fill:#3b676b; stroke:none;" d="M1291 832L1292 833L1291 832z"/>
<path style="fill:#45917b; stroke:none;" d="M708 833L709 834L708 833M1291 833L1292 834L1291 833z"/>
<path style="fill:#3b676b; stroke:none;" d="M707 834L708 835L707 834z"/>
<path style="fill:#45917b; stroke:none;" d="M992 834L993 835L992 834M1007 834L1008 835L1007 834z"/>
<path style="fill:#3b676b; stroke:none;" d="M1292 834L1293 835L1292 834z"/>
<path style="fill:#45917b; stroke:none;" d="M707 835L708 836L707 835M1292 835L1293 836L1292 835z"/>
<path style="fill:#3b676b; stroke:none;" d="M706 836L707 837L706 836z"/>
<path style="fill:#45917b; stroke:none;" d="M993 836L994 837L993 836M1006 836L1007 837L1006 836z"/>
<path style="fill:#3b676b; stroke:none;" d="M1293 836L1294 837L1293 836z"/>
<path style="fill:#45917b; stroke:none;" d="M706 837L707 838L706 837M1293 837L1294 838L1293 837z"/>
<path style="fill:#3b676b; stroke:none;" d="M705 838L706 839L705 838z"/>
<path style="fill:#45917b; stroke:none;" d="M994 838L995 839L994 838M1005 838L1006 839L1005 838z"/>
<path style="fill:#3b676b; stroke:none;" d="M1294 838L1295 839L1294 838z"/>
<path style="fill:#45917b; stroke:none;" d="M705 839L706 840L705 839M1294 839L1295 840L1294 839z"/>
<path style="fill:#3b676b; stroke:none;" d="M704 840L705 841L704 840z"/>
<path style="fill:#45917b; stroke:none;" d="M995 840L996 841L995 840M1004 840L1005 841L1004 840z"/>
<path style="fill:#3b676b; stroke:none;" d="M1295 840L1296 841L1295 840z"/>
<path style="fill:#45917b; stroke:none;" d="M704 841L705 842L704 841M1295 841L1296 842L1295 841z"/>
<path style="fill:#3b676b; stroke:none;" d="M703 842L704 843L703 842z"/>
<path style="fill:#45917b; stroke:none;" d="M996 842L997 843L996 842M1003 842L1004 843L1003 842z"/>
<path style="fill:#3b676b; stroke:none;" d="M1296 842L1297 843L1296 842z"/>
<path style="fill:#45917b; stroke:none;" d="M703 843L704 844L703 843M1296 843L1297 844L1296 843z"/>
<path style="fill:#3b676b; stroke:none;" d="M702 844L703 845L702 844z"/>
<path style="fill:#45917b; stroke:none;" d="M997 844L998 845L997 844M1002 844L1003 845L1002 844z"/>
<path style="fill:#3b676b; stroke:none;" d="M1297 844L1298 845L1297 844z"/>
<path style="fill:#45917b; stroke:none;" d="M702 845L703 846L702 845M1297 845L1298 846L1297 845z"/>
<path style="fill:#3b676b; stroke:none;" d="M701 846L702 847L701 846z"/>
<path style="fill:#45917b; stroke:none;" d="M998 846L999 847L998 846M1001 846L1002 847L1001 846z"/>
<path style="fill:#3b676b; stroke:none;" d="M1298 846L1299 847L1298 846z"/>
<path style="fill:#45917b; stroke:none;" d="M701 847L702 848L701 847M1298 847L1299 848L1298 847z"/>
<path style="fill:#3b676b; stroke:none;" d="M700 848L701 849L700 848z"/>
<path style="fill:#45917b; stroke:none;" d="M999.667 848.333L1000.33 848.667L999.667 848.333z"/>
<path style="fill:#3b676b; stroke:none;" d="M1299 848L1300 849L1299 848z"/>
<path style="fill:#45917b; stroke:none;" d="M700 849L701 850L700 849M1299 849L1300 850L1299 849z"/>
<path style="fill:#3b676b; stroke:none;" d="M699 850L700 851L699 850M1300 850L1301 851L1300 850z"/>
<path style="fill:#45917b; stroke:none;" d="M699 851L700 852L699 851M1300 851L1301 852L1300 851z"/>
<path style="fill:#3b676b; stroke:none;" d="M698 852L699 853L698 852M1301 852L1302 853L1301 852z"/>
<path style="fill:#45917b; stroke:none;" d="M698 853L699 854L698 853M1301 853L1302 854L1301 853z"/>
<path style="fill:#3b676b; stroke:none;" d="M697 854L698 855L697 854M1302 854L1303 855L1302 854z"/>
<path style="fill:#45917b; stroke:none;" d="M697 855L698 856L697 855M1302 855L1303 856L1302 855z"/>
<path style="fill:#3b676b; stroke:none;" d="M696 856L697 857L696 856M1303 856L1304 857L1303 856z"/>
<path style="fill:#45917b; stroke:none;" d="M696 857L697 858L696 857M1303 857L1304 858L1303 857z"/>
<path style="fill:#3b676b; stroke:none;" d="M695 858L696 859L695 858M1304 858L1305 859L1304 858z"/>
<path style="fill:#45917b; stroke:none;" d="M695 859L696 860L695 859M1304 859L1305 860L1304 859z"/>
<path style="fill:#3b676b; stroke:none;" d="M694 860L695 861L694 860M1305 860L1306 861L1305 860z"/>
<path style="fill:#45917b; stroke:none;" d="M694 861L695 862L694 861M1305 861L1306 862L1305 861z"/>
<path style="fill:#3b676b; stroke:none;" d="M693 862L694 863L693 862M1306 862L1307 863L1306 862z"/>
<path style="fill:#45917b; stroke:none;" d="M693 863L694 864L693 863M1306 863L1307 864L1306 863z"/>
<path style="fill:#3b676b; stroke:none;" d="M692 864L693 865L692 864M1307 864L1308 865L1307 864z"/>
<path style="fill:#45917b; stroke:none;" d="M692 865L693 866L692 865M1307 865L1308 866L1307 865z"/>
<path style="fill:#3b676b; stroke:none;" d="M691 866L692 867L691 866M1308 866L1309 867L1308 866z"/>
<path style="fill:#45917b; stroke:none;" d="M691 867L692 868L691 867M1308 867L1309 868L1308 867z"/>
<path style="fill:#3b676b; stroke:none;" d="M690 868L691 869L690 868M1309 868L1310 869L1309 868z"/>
<path style="fill:#45917b; stroke:none;" d="M690 869L691 870L690 869M1309 869L1310 870L1309 869z"/>
<path style="fill:#3b676b; stroke:none;" d="M689 870L690 871L689 870M1310 870L1311 871L1310 870z"/>
<path style="fill:#45917b; stroke:none;" d="M689 871L690 872L689 871M1310 871L1311 872L1310 871z"/>
<path style="fill:#3b676b; stroke:none;" d="M688 872L689 873L688 872M1311 872L1312 873L1311 872z"/>
<path style="fill:#45917b; stroke:none;" d="M688 873L689 874L688 873M1311 873L1312 874L1311 873z"/>
<path style="fill:#3b676b; stroke:none;" d="M687 874L688 875L687 874M1312 874L1313 875L1312 874z"/>
<path style="fill:#45917b; stroke:none;" d="M687 875L688 876L687 875M1312 875L1313 876L1312 875z"/>
<path style="fill:#3b676b; stroke:none;" d="M686 876L687 877L686 876M1313 876L1314 877L1313 876z"/>
<path style="fill:#45917b; stroke:none;" d="M686 877L687 878L686 877M1313 877L1314 878L1313 877z"/>
<path style="fill:#3b676b; stroke:none;" d="M685 878L686 879L685 878M1314 878L1315 879L1314 878z"/>
<path style="fill:#45917b; stroke:none;" d="M685 879L686 880L685 879M1314 879L1315 880L1314 879z"/>
<path style="fill:#3b676b; stroke:none;" d="M684 880L685 881L684 880M1315 880L1316 881L1315 880z"/>
<path style="fill:#45917b; stroke:none;" d="M684 881L685 882L684 881M1315 881L1316 882L1315 881z"/>
<path style="fill:#3b676b; stroke:none;" d="M683 882L684 883L683 882M1316 882L1317 883L1316 882z"/>
<path style="fill:#45917b; stroke:none;" d="M683 883L684 884L683 883M1316 883L1317 884L1316 883z"/>
<path style="fill:#3b676b; stroke:none;" d="M682 884L683 885L682 884M1317 884L1318 885L1317 884z"/>
<path style="fill:#45917b; stroke:none;" d="M682 885L683 886L682 885M1317 885L1318 886L1317 885z"/>
<path style="fill:#3b676b; stroke:none;" d="M681 886L682 887L681 886M1318 886L1319 887L1318 886z"/>
<path style="fill:#45917b; stroke:none;" d="M681 887L682 888L681 887M1318 887L1319 888L1318 887z"/>
<path style="fill:#3b676b; stroke:none;" d="M680 888L681 889L680 888M1319 888L1320 889L1319 888z"/>
<path style="fill:#45917b; stroke:none;" d="M680 889L681 890L680 889M1319 889L1320 890L1319 889z"/>
<path style="fill:#3b676b; stroke:none;" d="M679 890L680 891L679 890M1320 890L1321 891L1320 890z"/>
<path style="fill:#45917b; stroke:none;" d="M679 891L680 892L679 891M1320 891L1321 892L1320 891z"/>
<path style="fill:#3b676b; stroke:none;" d="M678 892L679 893L678 892M1321 892L1322 893L1321 892z"/>
<path style="fill:#45917b; stroke:none;" d="M678 893L679 894L678 893M1321 893L1322 894L1321 893z"/>
<path style="fill:#3b676b; stroke:none;" d="M677 894L678 895L677 894M1322 894L1323 895L1322 894z"/>
<path style="fill:#45917b; stroke:none;" d="M677 895L678 896L677 895M1322 895L1323 896L1322 895z"/>
<path style="fill:#3b676b; stroke:none;" d="M676 896L677 897L676 896M1323 896L1324 897L1323 896z"/>
<path style="fill:#45917b; stroke:none;" d="M676 897L677 898L676 897M1323 897L1324 898L1323 897z"/>
<path style="fill:#3b676b; stroke:none;" d="M675 898L676 899L675 898M1324 898L1325 899L1324 898z"/>
<path style="fill:#45917b; stroke:none;" d="M675 899L676 900L675 899M1324 899L1325 900L1324 899z"/>
<path style="fill:#3b676b; stroke:none;" d="M674 900L675 901L674 900M1325 900L1326 901L1325 900z"/>
<path style="fill:#45917b; stroke:none;" d="M674 901L675 902L674 901M1325 901L1326 902L1325 901z"/>
<path style="fill:#3b676b; stroke:none;" d="M673 902L674 903L673 902M1326 902L1327 903L1326 902z"/>
<path style="fill:#45917b; stroke:none;" d="M673 903L674 904L673 903M1326 903L1327 904L1326 903z"/>
<path style="fill:#3b676b; stroke:none;" d="M672 904L673 905L672 904M1327 904L1328 905L1327 904z"/>
<path style="fill:#45917b; stroke:none;" d="M672 905L673 906L672 905M1327 905L1328 906L1327 905z"/>
<path style="fill:#3b676b; stroke:none;" d="M671 906L672 907L671 906M1328 906L1329 907L1328 906z"/>
<path style="fill:#45917b; stroke:none;" d="M671 907L672 908L671 907M1328 907L1329 908L1328 907z"/>
<path style="fill:#3b676b; stroke:none;" d="M670 908L671 909L670 908M1329 908L1330 909L1329 908z"/>
<path style="fill:#45917b; stroke:none;" d="M670 909L671 910L670 909M1329 909L1330 910L1329 909z"/>
<path style="fill:#3b676b; stroke:none;" d="M669 910L670 911L669 910M1330 910L1331 911L1330 910z"/>
<path style="fill:#45917b; stroke:none;" d="M669 911L670 912L669 911M1330 911L1331 912L1330 911z"/>
<path style="fill:#3b676b; stroke:none;" d="M668 912L669 913L668 912M1331 912L1332 913L1331 912z"/>
<path style="fill:#45917b; stroke:none;" d="M668 913L669 914L668 913M1331 913L1332 914L1331 913z"/>
<path style="fill:#3b676b; stroke:none;" d="M667 914L668 915L667 914M1332 914L1333 915L1332 914z"/>
<path style="fill:#45917b; stroke:none;" d="M667 915L668 916L667 915M1332 915L1333 916L1332 915z"/>
<path style="fill:#3b676b; stroke:none;" d="M666 916L667 917L666 916M1333 916L1334 917L1333 916z"/>
<path style="fill:#45917b; stroke:none;" d="M666 917L667 918L666 917M1333 917L1334 918L1333 917z"/>
<path style="fill:#3b676b; stroke:none;" d="M665 918L666 919L665 918M1334 918L1335 919L1334 918z"/>
<path style="fill:#45917b; stroke:none;" d="M665 919L666 920L665 919M1334 919L1335 920L1334 919z"/>
<path style="fill:#3b676b; stroke:none;" d="M664 920L665 921L664 920M1335 920L1336 921L1335 920z"/>
<path style="fill:#45917b; stroke:none;" d="M664 921L665 922L664 921M1335 921L1336 922L1335 921z"/>
<path style="fill:#3b676b; stroke:none;" d="M663 922L664 923L663 922M1336 922L1337 923L1336 922z"/>
<path style="fill:#45917b; stroke:none;" d="M663 923L664 924L663 923M1336 923L1337 924L1336 923z"/>
<path style="fill:#3b676b; stroke:none;" d="M662 924L663 925L662 924M1337 924L1338 925L1337 924z"/>
<path style="fill:#45917b; stroke:none;" d="M662 925L663 926L662 925M1337 925L1338 926L1337 925z"/>
<path style="fill:#3b676b; stroke:none;" d="M661 926L662 927L661 926M1338 926L1339 927L1338 926z"/>
<path style="fill:#45917b; stroke:none;" d="M661 927L662 928L661 927M1338 927L1339 928L1338 927z"/>
<path style="fill:#3b676b; stroke:none;" d="M660 928L661 929L660 928M1339 928L1340 929L1339 928z"/>
<path style="fill:#45917b; stroke:none;" d="M660 929L661 930L660 929M1339 929L1340 930L1339 929z"/>
<path style="fill:#3b676b; stroke:none;" d="M659 930L660 931L659 930M1340 930L1341 931L1340 930z"/>
<path style="fill:#45917b; stroke:none;" d="M659 931L660 932L659 931M1340 931L1341 932L1340 931z"/>
<path style="fill:#3b676b; stroke:none;" d="M658 932L659 933L658 932M1341 932L1342 933L1341 932z"/>
<path style="fill:#45917b; stroke:none;" d="M658 933L659 934L658 933M1341 933L1342 934L1341 933z"/>
<path style="fill:#3b676b; stroke:none;" d="M657 934L658 935L657 934M1342 934L1343 935L1342 934z"/>
<path style="fill:#45917b; stroke:none;" d="M657 935L658 936L657 935M1342 935L1343 936L1342 935z"/>
<path style="fill:#3b676b; stroke:none;" d="M656 936L657 937L656 936M1343 936L1344 937L1343 936z"/>
<path style="fill:#45917b; stroke:none;" d="M656 937L657 938L656 937M1343 937L1344 938L1343 937z"/>
<path style="fill:#3b676b; stroke:none;" d="M655 938L656 939L655 938M1344 938L1345 939L1344 938z"/>
<path style="fill:#45917b; stroke:none;" d="M655 939L656 940L655 939M1344 939L1345 940L1344 939z"/>
<path style="fill:#3b676b; stroke:none;" d="M654 940L655 941L654 940M1345 940L1346 941L1345 940z"/>
<path style="fill:#45917b; stroke:none;" d="M654 941L655 942L654 941M1345 941L1346 942L1345 941z"/>
<path style="fill:#3b676b; stroke:none;" d="M653 942L654 943L653 942M1346 942L1347 943L1346 942z"/>
<path style="fill:#45917b; stroke:none;" d="M653 943L654 944L653 943M1346 943L1347 944L1346 943z"/>
<path style="fill:#3b676b; stroke:none;" d="M652 944L653 945L652 944M1347 944L1348 945L1347 944z"/>
<path style="fill:#45917b; stroke:none;" d="M652 945L653 946L652 945M1347 945L1348 946L1347 945z"/>
<path style="fill:#3b676b; stroke:none;" d="M651 946L652 947L651 946M1348 946L1349 947L1348 946z"/>
<path style="fill:#45917b; stroke:none;" d="M651 947L652 948L651 947M1348 947L1349 948L1348 947z"/>
<path style="fill:#3b676b; stroke:none;" d="M650 948L651 949L650 948M1349 948L1350 949L1349 948z"/>
<path style="fill:#45917b; stroke:none;" d="M650 949L651 950L650 949M1349 949L1350 950L1349 949z"/>
<path style="fill:#3b676b; stroke:none;" d="M649 950L650 951L649 950M1350 950L1351 951L1350 950z"/>
<path style="fill:#45917b; stroke:none;" d="M649 951L650 952L649 951M1350 951L1351 952L1350 951z"/>
<path style="fill:#3b676b; stroke:none;" d="M648 952L649 953L648 952M1351 952L1352 953L1351 952z"/>
<path style="fill:#45917b; stroke:none;" d="M648 953L649 954L648 953M1351 953L1352 954L1351 953z"/>
<path style="fill:#3b676b; stroke:none;" d="M647 954L648 955L647 954M1352 954L1353 955L1352 954z"/>
<path style="fill:#45917b; stroke:none;" d="M647 955L648 956L647 955M1352 955L1353 956L1352 955z"/>
<path style="fill:#3b676b; stroke:none;" d="M646 956L647 957L646 956M1353 956L1354 957L1353 956z"/>
<path style="fill:#45917b; stroke:none;" d="M646 957L647 958L646 957M1353 957L1354 958L1353 957z"/>
<path style="fill:#3b676b; stroke:none;" d="M645 958L646 959L645 958M1354 958L1355 959L1354 958z"/>
<path style="fill:#45917b; stroke:none;" d="M645 959L646 960L645 959M1354 959L1355 960L1354 959z"/>
<path style="fill:#3b676b; stroke:none;" d="M644 960L645 961L644 960M1355 960L1356 961L1355 960z"/>
<path style="fill:#45917b; stroke:none;" d="M644 961L645 962L644 961M1355 961L1356 962L1355 961z"/>
<path style="fill:#3b676b; stroke:none;" d="M643 962L644 963L643 962M1356 962L1357 963L1356 962z"/>
<path style="fill:#45917b; stroke:none;" d="M643 963L644 964L643 963M1356 963L1357 964L1356 963z"/>
<path style="fill:#3b676b; stroke:none;" d="M642 964L643 965L642 964M1357 964L1358 965L1357 964z"/>
<path style="fill:#45917b; stroke:none;" d="M642 965L643 966L642 965M1357 965L1358 966L1357 965z"/>
<path style="fill:#3b676b; stroke:none;" d="M641 966L642 967L641 966M1358 966L1359 967L1358 966z"/>
<path style="fill:#45917b; stroke:none;" d="M641 967L642 968L641 967M1358 967L1359 968L1358 967z"/>
<path style="fill:#3b676b; stroke:none;" d="M640 968L641 969L640 968M1359 968L1360 969L1359 968z"/>
<path style="fill:#45917b; stroke:none;" d="M640 969L641 970L640 969M1359 969L1360 970L1359 969z"/>
<path style="fill:#3b676b; stroke:none;" d="M639 970L640 971L639 970M1360 970L1361 971L1360 970z"/>
<path style="fill:#45917b; stroke:none;" d="M639 971L640 972L639 971M1360 971L1361 972L1360 971z"/>
<path style="fill:#3b676b; stroke:none;" d="M638 972L639 973L638 972M1361 972L1362 973L1361 972z"/>
<path style="fill:#45917b; stroke:none;" d="M638 973L639 974L638 973M1361 973L1362 974L1361 973z"/>
<path style="fill:#3b676b; stroke:none;" d="M637 974L638 975L637 974M1362 974L1363 975L1362 974z"/>
<path style="fill:#45917b; stroke:none;" d="M637 975L638 976L637 975M1362 975L1363 976L1362 975z"/>
<path style="fill:#3b676b; stroke:none;" d="M636 976L637 977L636 976M1363 976L1364 977L1363 976z"/>
<path style="fill:#45917b; stroke:none;" d="M636 977L637 978L636 977M1363 977L1364 978L1363 977z"/>
<path style="fill:#3b676b; stroke:none;" d="M635 978L636 979L635 978M1364 978L1365 979L1364 978z"/>
<path style="fill:#45917b; stroke:none;" d="M635 979L636 980L635 979M1364 979L1365 980L1364 979z"/>
<path style="fill:#3b676b; stroke:none;" d="M634 980L635 981L634 980M1365 980L1366 981L1365 980z"/>
<path style="fill:#45917b; stroke:none;" d="M634 981L635 982L634 981M1365 981L1366 982L1365 981z"/>
<path style="fill:#3b676b; stroke:none;" d="M633 982L634 983L633 982M1366 982L1367 983L1366 982z"/>
<path style="fill:#45917b; stroke:none;" d="M633 983L634 984L633 983M1366 983L1367 984L1366 983z"/>
<path style="fill:#3b676b; stroke:none;" d="M632 984L633 985L632 984M1367 984L1368 985L1367 984z"/>
<path style="fill:#45917b; stroke:none;" d="M632 985L633 986L632 985M1367 985L1368 986L1367 985z"/>
<path style="fill:#3b676b; stroke:none;" d="M631 986L632 987L631 986M1368 986L1369 987L1368 986z"/>
<path style="fill:#45917b; stroke:none;" d="M631 987L632 988L631 987M1368 987L1369 988L1368 987z"/>
<path style="fill:#3b676b; stroke:none;" d="M630 988L631 989L630 988M1369 988L1370 989L1369 988z"/>
<path style="fill:#45917b; stroke:none;" d="M630 989L631 990L630 989M1369 989L1370 990L1369 989z"/>
<path style="fill:#3b676b; stroke:none;" d="M629 990L630 991L629 990M1370 990L1371 991L1370 990z"/>
<path style="fill:#45917b; stroke:none;" d="M629 991L630 992L629 991M1370 991L1371 992L1370 991z"/>
<path style="fill:#3b676b; stroke:none;" d="M628 992L629 993L628 992M1371 992L1372 993L1371 992z"/>
<path style="fill:#45917b; stroke:none;" d="M628 993L629 994L628 993M1371 993L1372 994L1371 993z"/>
<path style="fill:#3b676b; stroke:none;" d="M627 994L628 995L627 994M1372 994L1373 995L1372 994z"/>
<path style="fill:#45917b; stroke:none;" d="M627 995L628 996L627 995M1372 995L1373 996L1372 995z"/>
<path style="fill:#3b676b; stroke:none;" d="M626 996L627 997L626 996M1373 996L1374 997L1373 996z"/>
<path style="fill:#45917b; stroke:none;" d="M626 997L627 998L626 997M1373 997L1374 998L1373 997z"/>
<path style="fill:#3b676b; stroke:none;" d="M625 998L626 999L625 998M1374 998L1375 999L1374 998z"/>
<path style="fill:#45917b; stroke:none;" d="M625 999L626 1000L625 999M1374 999L1375 1000L1374 999M999.667 1151.33L1000.33 1151.67L999.667 1151.33M998 1153L999 1154L998 1153M1001 1153L1002 1154L1001 1153M997 1155L998 1156L997 1155M1002 1155L1003 1156L1002 1155M996 1157L997 1158L996 1157M1003 1157L1004 1158L1003 1157M995 1159L996 1160L995 1159M1004 1159L1005 1160L1004 1159M994 1161L995 1162L994 1161M1005 1161L1006 1162L1005 1161M993 1163L994 1164L993 1163M1006 1163L1007 1164L1006 1163M992 1165L993 1166L992 1165M1007 1165L1008 1166L1007 1165M991 1167L992 1168L991 1167M1008 1167L1009 1168L1008 1167M990 1169L991 1170L990 1169M1009 1169L1010 1170L1009 1169M989 1171L990 1172L989 1171M1010 1171L1011 1172L1010 1171M988 1173L989 1174L988 1173M1011 1173L1012 1174L1011 1173M987 1175L988 1176L987 1175M1012 1175L1013 1176L1012 1175M986 1177L987 1178L986 1177M1013 1177L1014 1178L1013 1177M985 1179L986 1180L985 1179M1014 1179L1015 1180L1014 1179M984 1181L985 1182L984 1181M1015 1181L1016 1182L1015 1181M983 1183L984 1184L983 1183M1016 1183L1017 1184L1016 1183M982 1185L983 1186L982 1185M1017 1185L1018 1186L1017 1185M981 1187L982 1188L981 1187M1018 1187L1019 1188L1018 1187M980 1189L981 1190L980 1189M1019 1189L1020 1190L1019 1189M979 1191L980 1192L979 1191M1020 1191L1021 1192L1020 1191M978 1193L979 1194L978 1193M1021 1193L1022 1194L1021 1193M977 1195L978 1196L977 1195M1022 1195L1023 1196L1022 1195M976 1197L977 1198L976 1197M1023 1197L1024 1198L1023 1197M975 1199L976 1200L975 1199M1024 1199L1025 1200L1024 1199M974 1201L975 1202L974 1201M1025 1201L1026 1202L1025 1201M973 1203L974 1204L973 1203M1026 1203L1027 1204L1026 1203M972 1205L973 1206L972 1205M1027 1205L1028 1206L1027 1205M971 1207L972 1208L971 1207M1028 1207L1029 1208L1028 1207M970 1209L971 1210L970 1209M1029 1209L1030 1210L1029 1209M969 1211L970 1212L969 1211M1030 1211L1031 1212L1030 1211M968 1213L969 1214L968 1213M1031 1213L1032 1214L1031 1213M967 1215L968 1216L967 1215M1032 1215L1033 1216L1032 1215M966 1217L967 1218L966 1217M1033 1217L1034 1218L1033 1217M965 1219L966 1220L965 1219M1034 1219L1035 1220L1034 1219M964 1221L965 1222L964 1221M1035 1221L1036 1222L1035 1221M963 1223L964 1224L963 1223M1036 1223L1037 1224L1036 1223M962 1225L963 1226L962 1225M1037 1225L1038 1226L1037 1225M961 1227L962 1228L961 1227M1038 1227L1039 1228L1038 1227M960 1229L961 1230L960 1229M1039 1229L1040 1230L1039 1229M959 1231L960 1232L959 1231M1040 1231L1041 1232L1040 1231M958 1233L959 1234L958 1233M1041 1233L1042 1234L1041 1233M957 1235L958 1236L957 1235M1042 1235L1043 1236L1042 1235M956 1237L957 1238L956 1237M1043 1237L1044 1238L1043 1237M955 1239L956 1240L955 1239M1044 1239L1045 1240L1044 1239M954 1241L955 1242L954 1241M1045 1241L1046 1242L1045 1241M953 1243L954 1244L953 1243M1046 1243L1047 1244L1046 1243M952 1245L953 1246L952 1245M1047 1245L1048 1246L1047 1245M951 1247L952 1248L951 1247M1048 1247L1049 1248L1048 1247M950 1249L951 1250L950 1249M1049 1249L1050 1250L1049 1249M949 1251L950 1252L949 1251M1050 1251L1051 1252L1050 1251M948 1253L949 1254L948 1253M1051 1253L1052 1254L1051 1253M947 1255L948 1256L947 1255M1052 1255L1053 1256L1052 1255M946 1257L947 1258L946 1257M1053 1257L1054 1258L1053 1257M945 1259L946 1260L945 1259M1054 1259L1055 1260L1054 1259M944 1261L945 1262L944 1261M1055 1261L1056 1262L1055 1261M943 1263L944 1264L943 1263M1056 1263L1057 1264L1056 1263M942 1265L943 1266L942 1265M1057 1265L1058 1266L1057 1265M941 1267L942 1268L941 1267M1058 1267L1059 1268L1058 1267M940 1269L941 1270L940 1269M1059 1269L1060 1270L1059 1269M939 1271L940 1272L939 1271M1060 1271L1061 1272L1060 1271M938 1273L939 1274L938 1273M1061 1273L1062 1274L1061 1273M937 1275L938 1276L937 1275M1062 1275L1063 1276L1062 1275M936 1277L937 1278L936 1277M1063 1277L1064 1278L1063 1277M935 1279L936 1280L935 1279M1064 1279L1065 1280L1064 1279M934 1281L935 1282L934 1281M1065 1281L1066 1282L1065 1281M933 1283L934 1284L933 1283M1066 1283L1067 1284L1066 1283M932 1285L933 1286L932 1285M1067 1285L1068 1286L1067 1285M931 1287L932 1288L931 1287M1068 1287L1069 1288L1068 1287M930 1289L931 1290L930 1289M1069 1289L1070 1290L1069 1289M929 1291L930 1292L929 1291M1070 1291L1071 1292L1070 1291M928 1293L929 1294L928 1293M1071 1293L1072 1294L1071 1293M927 1295L928 1296L927 1295M1072 1295L1073 1296L1072 1295M926 1297L927 1298L926 1297M1073 1297L1074 1298L1073 1297M925 1299L926 1300L925 1299M1074 1299L1075 1300L1074 1299M924 1301L925 1302L924 1301M1075 1301L1076 1302L1075 1301M923 1303L924 1304L923 1303M1076 1303L1077 1304L1076 1303M922 1305L923 1306L922 1305M1077 1305L1078 1306L1077 1305M921 1307L922 1308L921 1307M1078 1307L1079 1308L1078 1307M920 1309L921 1310L920 1309M1079 1309L1080 1310L1079 1309M919 1311L920 1312L919 1311M1080 1311L1081 1312L1080 1311M918 1313L919 1314L918 1313M1081 1313L1082 1314L1081 1313M917 1315L918 1316L917 1315M1082 1315L1083 1316L1082 1315M916 1317L917 1318L916 1317M1083 1317L1084 1318L1083 1317M915 1319L916 1320L915 1319M1084 1319L1085 1320L1084 1319M914 1321L915 1322L914 1321M1085 1321L1086 1322L1085 1321M913 1323L914 1324L913 1323M1086 1323L1087 1324L1086 1323M912 1325L913 1326L912 1325M1087 1325L1088 1326L1087 1325M911 1327L912 1328L911 1327M1088 1327L1089 1328L1088 1327M910 1329L911 1330L910 1329M1089 1329L1090 1330L1089 1329M909 1331L910 1332L909 1331M1090 1331L1091 1332L1090 1331M908 1333L909 1334L908 1333M1091 1333L1092 1334L1091 1333M907 1335L908 1336L907 1335M1092 1335L1093 1336L1092 1335M906 1337L907 1338L906 1337M1093 1337L1094 1338L1093 1337M905 1339L906 1340L905 1339M1094 1339L1095 1340L1094 1339M904 1341L905 1342L904 1341M1095 1341L1096 1342L1095 1341M903 1343L904 1344L903 1343M1096 1343L1097 1344L1096 1343M902 1345L903 1346L902 1345M1097 1345L1098 1346L1097 1345M901 1347L902 1348L901 1347M1098 1347L1099 1348L1098 1347M900 1349L901 1350L900 1349M1099 1349L1100 1350L1099 1349M899 1351L900 1352L899 1351M1100 1351L1101 1352L1100 1351M898 1353L899 1354L898 1353M1101 1353L1102 1354L1101 1353M897 1355L898 1356L897 1355M1102 1355L1103 1356L1102 1355M896 1357L897 1358L896 1357M1103 1357L1104 1358L1103 1357M895 1359L896 1360L895 1359M1104 1359L1105 1360L1104 1359M894 1361L895 1362L894 1361M1105 1361L1106 1362L1105 1361M893 1363L894 1364L893 1363M1106 1363L1107 1364L1106 1363M892 1365L893 1366L892 1365M1107 1365L1108 1366L1107 1365M891 1367L892 1368L891 1367M1108 1367L1109 1368L1108 1367M890 1369L891 1370L890 1369M1109 1369L1110 1370L1109 1369M889 1371L890 1372L889 1371M1110 1371L1111 1372L1110 1371M888 1373L889 1374L888 1373M1111 1373L1112 1374L1111 1373M887 1375L888 1376L887 1375M1112 1375L1113 1376L1112 1375M886 1377L887 1378L886 1377M1113 1377L1114 1378L1113 1377M885 1379L886 1380L885 1379M1114 1379L1115 1380L1114 1379M884 1381L885 1382L884 1381M1115 1381L1116 1382L1115 1381M883 1383L884 1384L883 1383M1116 1383L1117 1384L1116 1383M882 1385L883 1386L882 1385M1117 1385L1118 1386L1117 1385M881 1387L882 1388L881 1387M1118 1387L1119 1388L1118 1387M880 1389L881 1390L880 1389M1119 1389L1120 1390L1119 1389M879 1391L880 1392L879 1391M1120 1391L1121 1392L1120 1391M878 1393L879 1394L878 1393M1121 1393L1122 1394L1121 1393M877 1395L878 1396L877 1395M1122 1395L1123 1396L1122 1395M876 1397L877 1398L876 1397M1123 1397L1124 1398L1123 1397M875 1399L876 1400L875 1399M1124 1399L1125 1400L1124 1399M874 1401L875 1402L874 1401M1125 1401L1126 1402L1125 1401M873 1403L874 1404L873 1403M1126 1403L1127 1404L1126 1403M872 1405L873 1406L872 1405M1127 1405L1128 1406L1127 1405M871 1407L872 1408L871 1407M1128 1407L1129 1408L1128 1407M870 1409L871 1410L870 1409M1129 1409L1130 1410L1129 1409M869 1411L870 1412L869 1411M1130 1411L1131 1412L1130 1411M868 1413L869 1414L868 1413M1131 1413L1132 1414L1131 1413M867 1415L868 1416L867 1415M1132 1415L1133 1416L1132 1415M866 1417L867 1418L866 1417M1133 1417L1134 1418L1133 1417M865 1419L866 1420L865 1419M1134 1419L1135 1420L1134 1419M864 1421L865 1422L864 1421M1135 1421L1136 1422L1135 1421M863 1423L864 1424L863 1423M1136 1423L1137 1424L1136 1423M862 1425L863 1426L862 1425M1137 1425L1138 1426L1137 1425M861 1427L862 1428L861 1427M1138 1427L1139 1428L1138 1427M860 1429L861 1430L860 1429M1139 1429L1140 1430L1139 1429M859 1431L860 1432L859 1431M1140 1431L1141 1432L1140 1431M858 1433L859 1434L858 1433M1141 1433L1142 1434L1141 1433M857 1435L858 1436L857 1435M1142 1435L1143 1436L1142 1435M856 1437L857 1438L856 1437M1143 1437L1144 1438L1143 1437M855 1439L856 1440L855 1439M1144 1439L1145 1440L1144 1439M854 1441L855 1442L854 1441M1145 1441L1146 1442L1145 1441M853 1443L854 1444L853 1443M1146 1443L1147 1444L1146 1443M852 1445L853 1446L852 1445M1147 1445L1148 1446L1147 1445M851 1447L852 1448L851 1447M1148 1447L1149 1448L1148 1447M850 1449L851 1450L850 1449M1149 1449L1150 1450L1149 1449z"/>
</svg>
