<svg width="1000" height="845" viewBox="0 0 1000 845" fill="none" xmlns="http://www.w3.org/2000/svg">
<path d="M320 87C272.6 90.2 269.9 154.2 182 203C110.5 242.7 74.8 221.1 52.5 250.7C-5.30001 327.5 134.5 606 296 619C374.4 625.3 390.6 563.6 548 525C675.3 493.8 710.2 523 756 485C863.3 396 815.3 116.7 734.5 96.7C665.3 79.5 605 261.2 504.5 246.7C415.7 233.9 393.5 82 320 87Z" fill="#333379"/>
<path d="M540.9 180.3C544.9 206.7 540.9 247.3 569.8 268.9C597.3 289.4 620 284.3 620 284.3C622.7 274.5 657.5 178.7 540.9 180.3Z" fill="#022266"/>
<path d="M697.2 186.5C672.5 196.5 632 202.1 617.8 235.3C613 246.5 611.2 256.4 610.9 264.5C604 279.8 597.4 292.3 591 302.5C570.4 335.2 552.7 343.7 538.9 344.1C510.8 344.9 500.9 311.7 430.9 252.1C383.3 211.5 355.6 188.6 312.9 182.1C256.3 173.5 212.1 199.9 205.7 203.9C193.4 211.5 158.2 233.1 144.9 274.1C118.6 355.3 199.6 430.7 208.7 438.9C247.6 474.1 290.2 484.3 313.7 489.9C328.9 493.5 382.5 505 448.9 488.5C487.1 479 559.9 460.9 602.9 392.1C625.4 356.1 632 318.6 632.5 288.1C663.4 286.9 719.6 274.4 697.2 186.5Z" fill="#32FD99"/>
<g opacity="0.15">
<g opacity="0.15">
<g opacity="0.15">
<path opacity="0.15" d="M697.2 186.5C693.9 187.9 690.2 189.1 686.4 190.4C704.2 271.4 650.4 283.6 620.4 284.8C620.1 315.3 613.7 352.8 591.5 388.9C549 458 476.2 476.5 438.1 486.3C394.8 497.3 356.9 496.4 331.6 493.5C356.1 497.5 398.9 500.9 448.9 488.5C487.1 479 559.9 460.9 602.9 392.1C625.4 356.1 632 318.6 632.5 288.1C663.4 286.9 719.6 274.4 697.2 186.5Z" fill="#515151"/>
</g>
</g>
</g>
<path opacity="0.2" d="M174.9 307.2C180.975 307.2 185.9 301.559 185.9 294.6C185.9 287.641 180.975 282 174.9 282C168.825 282 163.9 287.641 163.9 294.6C163.9 301.559 168.825 307.2 174.9 307.2Z" fill="#515151"/>
<path opacity="0.2" d="M252.1 294.7C258.286 294.7 263.3 288.925 263.3 281.8C263.3 274.676 258.286 268.9 252.1 268.9C245.914 268.9 240.9 274.676 240.9 281.8C240.9 288.925 245.914 294.7 252.1 294.7Z" fill="#515151"/>
<g opacity="0.16">
<g opacity="0.16">
<g opacity="0.16">
<path opacity="0.16" d="M192.2 223.3C197.6 220 242.7 194.4 299.4 201.5C350.1 207.9 383.9 237.2 416.7 265.7C479.6 320.3 511.9 360.2 540.9 354.4C554.5 351.7 563.2 344.6 577.5 322C578.2 320.9 578.9 319.8 579.5 318.7C563.8 338.2 550 343.8 538.9 344.1C510.8 344.9 500.9 311.7 430.9 252.1C383.3 211.5 355.6 188.6 312.9 182.1C256.3 173.5 212.1 199.9 205.7 203.9C195.3 210.3 168.8 226.6 152.7 256C167.5 238.6 184.4 228.2 192.2 223.3Z" fill="#515151"/>
</g>
</g>
</g>
<path d="M448.9 488.4C478.2 481.1 527.8 468.8 568.8 432.4C488.2 466.8 435.6 460.7 400.9 446C318.6 411 296.1 309.3 226.9 312C208.5 312.7 184.1 320.4 172.9 340C159.3 363.9 172.3 392.5 174.4 397C181.1 408 192.1 423.5 208.7 438.8C246.5 473.6 288 483.7 313.7 489.8C328.9 493.5 382.5 504.9 448.9 488.4Z" fill="#A6FFD0"/>
<path opacity="0.12" d="M223.5 312C223.5 312 270.5 424 400 451" stroke="#022266" stroke-width="6" stroke-miterlimit="10" stroke-linecap="round" stroke-linejoin="round"/>
<path opacity="0.08" d="M457.1 478.6C390.7 495.1 337.1 483.7 321.9 480C296.2 473.8 254.7 463.8 216.9 429C200.3 413.7 189.3 398.2 182.6 387.2C180.5 382.7 167.5 354.1 181.1 330.2C181.3 329.8 181.6 329.4 181.9 328.9C178.4 332.1 175.4 335.8 173 340C159.4 363.9 172.4 392.5 174.5 397C181.2 408 192.2 423.5 208.8 438.8C246.6 473.6 288.1 483.7 313.8 489.8C329 493.4 382.6 504.9 449 488.4C478.3 481.1 527.9 468.8 568.9 432.4C565.9 433.7 562.9 434.9 559.9 436.1C522.8 462.2 482.3 472.3 457.1 478.6Z" fill="#515151"/>
<path opacity="0.12" d="M174.9 341.8C174.9 341.8 194 415.2 274 456.5C333 487 427.3 503.2 544.9 448" stroke="#022266" stroke-width="6" stroke-miterlimit="10" stroke-linecap="round" stroke-linejoin="round"/>
<path opacity="0.12" d="M190.1 322.7C190.1 322.7 255.5 525 528.4 449.5" stroke="#022266" stroke-width="6" stroke-miterlimit="10" stroke-linecap="round" stroke-linejoin="round"/>
<path d="M448.9 488.4C478.2 481.1 527.8 468.8 568.8 432.4C488.2 466.8 435.6 460.7 400.9 446C318.6 411 296.1 309.3 226.9 312C208.5 312.7 184.1 320.4 172.9 340C159.3 363.9 172.3 392.5 174.4 397C181.1 408 192.1 423.5 208.7 438.8C246.5 473.6 288 483.7 313.7 489.8C328.9 493.5 382.5 504.9 448.9 488.4Z" stroke="#022266" stroke-width="6" stroke-miterlimit="10" stroke-linecap="round" stroke-linejoin="round"/>
<path d="M171.8 305.6C176.826 305.6 180.9 300.317 180.9 293.8C180.9 287.283 176.826 282 171.8 282C166.774 282 162.7 287.283 162.7 293.8C162.7 300.317 166.774 305.6 171.8 305.6Z" fill="#022266"/>
<path d="M249.4 303.5C251.112 303.5 252.5 301.664 252.5 299.4C252.5 297.135 251.112 295.3 249.4 295.3C247.688 295.3 246.3 297.135 246.3 299.4C246.3 301.664 247.688 303.5 249.4 303.5Z" fill="white"/>
<path d="M248.6 292.6C253.626 292.6 257.7 287.317 257.7 280.8C257.7 274.283 253.626 269 248.6 269C243.574 269 239.5 274.283 239.5 280.8C239.5 287.317 243.574 292.6 248.6 292.6Z" fill="#022266"/>
<path d="M247.4 280.8C249.223 280.8 250.7 278.651 250.7 276C250.7 273.349 249.223 271.2 247.4 271.2C245.577 271.2 244.1 273.349 244.1 276C244.1 278.651 245.577 280.8 247.4 280.8Z" fill="white"/>
<path d="M249 289.1C249.884 289.1 250.6 288.025 250.6 286.7C250.6 285.374 249.884 284.3 249 284.3C248.116 284.3 247.4 285.374 247.4 286.7C247.4 288.025 248.116 289.1 249 289.1Z" fill="white"/>
<path d="M252.5 312C253.384 312 254.1 310.926 254.1 309.6C254.1 308.275 253.384 307.2 252.5 307.2C251.616 307.2 250.9 308.275 250.9 309.6C250.9 310.926 251.616 312 252.5 312Z" fill="white"/>
<path d="M697.2 186.5C672.5 196.5 632 202.1 617.8 235.3C613 246.5 611.2 256.4 610.9 264.5C604 279.8 597.4 292.3 591 302.5C570.4 335.2 552.7 343.7 538.9 344.1C510.8 344.9 500.9 311.7 430.9 252.1C383.3 211.5 355.6 188.6 312.9 182.1C256.3 173.5 212.1 199.9 205.7 203.9C193.4 211.5 158.2 233.1 144.9 274.1C118.6 355.3 199.6 430.7 208.7 438.9C247.6 474.1 290.2 484.3 313.7 489.9C328.9 493.5 382.5 505 448.9 488.5C487.1 479 559.9 460.9 602.9 392.1C625.4 356.1 632 318.6 632.5 288.1C663.4 286.9 719.6 274.4 697.2 186.5Z" stroke="#022266" stroke-width="6" stroke-miterlimit="10" stroke-linecap="round" stroke-linejoin="round"/>
<path d="M420.9 396C420.9 396 477.2 460.9 434.9 538C408.9 564 386.1 482 386.1 456C386.1 430 394.9 415.3 394.9 415.3" fill="#32FD99"/>
<path opacity="0.2" d="M420.9 396L419.6 396.9C433.5 420.7 452.7 468.9 422.9 523.3C416.8 529.4 410.9 529.6 405.4 525.9C413.7 540.8 424.1 548.9 434.9 538C477.2 460.9 420.9 396 420.9 396Z" fill="#515151"/>
<path d="M420.9 396C420.9 396 477.2 460.9 434.9 538C408.9 564 386.1 482 386.1 456C386.1 430 394.9 415.3 394.9 415.3" stroke="#022266" stroke-width="6" stroke-miterlimit="10" stroke-linecap="round" stroke-linejoin="round"/>
<path opacity="0.28" d="M505.7 77C505.7 77 464.7 69 464.7 111C464.7 153 530.7 161 548.7 143C566.7 125 598.4 94.1 580.7 76.4C563 58.7 505.7 77 505.7 77Z" fill="#333379"/>
<path opacity="0.28" d="M206.5 142.4C204.2 142.1 191.5 140.6 186.6 147.5C180.5 156 189.9 172.3 201 180C208.5 185.2 224.1 191.5 233.1 183.2C241.5 175.5 239.6 159.1 231 150C221.8 140.3 207.9 142.2 206.5 142.4Z" fill="#333379"/>
</svg>
