<svg width="38" height="38" viewBox="0 0 38 38" fill="none" xmlns="http://www.w3.org/2000/svg">
<ellipse cx="18.8673" cy="18.868" rx="18.8683" ry="18.8683" fill="url(#paint0_linear_447_413)"/>
<path d="M10.2275 11.8706H27.5188C27.8151 11.8714 28.099 11.9895 28.3084 12.1989C28.5179 12.4084 28.636 12.6923 28.6368 12.9886V24.8775C28.6352 25.097 28.5678 25.311 28.4433 25.4918C28.4203 25.5519 28.3847 25.6064 28.3389 25.6515C28.3076 25.6808 28.2725 25.7056 28.2344 25.7252C28.033 25.8919 27.7803 25.9842 27.5188 25.9863H10.2244C10.0777 25.9861 9.93243 25.957 9.79698 25.9006C9.66153 25.8442 9.53854 25.7616 9.43507 25.6576C9.22834 25.4502 9.11048 25.1704 9.10645 24.8775V12.9886C9.10726 12.6923 9.2253 12.4084 9.43478 12.1989C9.64426 11.9895 9.92815 11.8714 10.2244 11.8706H10.2275ZM9.96641 24.3984L16.023 18.3265L9.96333 13.3848V24.3984H9.96641ZM16.6925 18.8701L10.4425 25.1324H27.2424L21.2749 18.8701L19.3062 20.547C19.2292 20.6118 19.1319 20.6473 19.0313 20.6473C18.9307 20.6473 18.8334 20.6118 18.7564 20.547L16.6895 18.8639L16.6925 18.8701ZM21.9137 18.3142L27.7492 24.4567V13.3325L21.9137 18.3142ZM10.5162 12.7275L19.0206 19.6563L27.1626 12.7275H10.5162Z" fill="#1F2626"/>
<defs>
<linearGradient id="paint0_linear_447_413" x1="-0.000976562" y1="18.868" x2="37.7355" y2="18.868" gradientUnits="userSpaceOnUse">
<stop stop-color="#00F5A0"/>
<stop offset="1" stop-color="#00D9F5"/>
</linearGradient>
</defs>
</svg>
